<svg width="172" height="210" viewBox="0 0 172 210" fill="none" xmlns="http://www.w3.org/2000/svg">
<path d="M59.6607 184.517H61.489L68.4654 201.597H66.156L64.1352 196.593H56.9664L54.9697 201.597H52.6603L59.6607 184.517ZM63.6541 194.909L60.5749 187.018L57.3994 194.909H63.6541ZM74.5264 201.837C73.4839 201.837 72.5056 201.669 71.5915 201.332C70.6773 200.979 69.8915 200.458 69.2339 199.768L70.0518 198.277C70.7735 198.951 71.4952 199.432 72.2169 199.72C72.9386 200.009 73.6764 200.153 74.4301 200.153C75.2962 200.153 76.0018 199.993 76.5471 199.672C77.0924 199.335 77.365 198.846 77.365 198.205C77.365 197.74 77.2207 197.395 76.932 197.17C76.6594 196.946 76.2664 196.761 75.7532 196.617C75.24 196.457 74.6306 196.28 73.9249 196.088C73.0589 195.831 72.3292 195.559 71.7358 195.27C71.1424 194.981 70.6933 194.62 70.3886 194.187C70.0839 193.754 69.9316 193.209 69.9316 192.551C69.9316 191.75 70.14 191.076 70.557 190.531C70.974 189.969 71.5433 189.544 72.265 189.256C73.0028 188.967 73.8367 188.823 74.7669 188.823C75.6971 188.823 76.5391 188.967 77.2929 189.256C78.0466 189.544 78.6962 189.969 79.2414 190.531L78.2792 191.998C77.782 191.485 77.2367 191.108 76.6433 190.868C76.0499 190.611 75.3844 190.483 74.6466 190.483C74.2136 190.483 73.7886 190.539 73.3716 190.651C72.9547 190.747 72.6099 190.932 72.3372 191.204C72.0646 191.461 71.9283 191.83 71.9283 192.311C71.9283 192.712 72.0325 193.033 72.241 193.273C72.4655 193.498 72.7863 193.69 73.2032 193.851C73.6363 194.011 74.1575 194.187 74.7669 194.38C75.7131 194.652 76.5311 194.925 77.2207 195.198C77.9264 195.47 78.4716 195.823 78.8565 196.256C79.2414 196.689 79.4339 197.291 79.4339 198.06C79.4339 199.247 78.9848 200.177 78.0867 200.851C77.1886 201.509 76.0018 201.837 74.5264 201.837ZM80.9803 197.964C80.9803 197.162 81.2048 196.473 81.6539 195.895C82.119 195.302 82.7524 194.845 83.5543 194.524C84.3562 194.203 85.2864 194.043 86.3449 194.043C86.9062 194.043 87.4996 194.091 88.1251 194.187C88.7505 194.268 89.3038 194.396 89.785 194.572V193.658C89.785 192.696 89.4963 191.942 88.9189 191.397C88.3416 190.835 87.5237 190.555 86.4652 190.555C85.7756 190.555 85.11 190.683 84.4685 190.94C83.843 191.18 83.1774 191.533 82.4718 191.998L81.702 190.507C82.5199 189.945 83.3378 189.528 84.1557 189.256C84.9737 188.967 85.8237 188.823 86.7057 188.823C88.3095 188.823 89.5765 189.272 90.5067 190.17C91.4369 191.052 91.902 192.287 91.902 193.875V199.191C91.902 199.448 91.9501 199.64 92.0463 199.768C92.1586 199.881 92.335 199.945 92.5755 199.961V201.597C92.367 201.629 92.1826 201.653 92.0222 201.669C91.8779 201.685 91.7576 201.693 91.6614 201.693C91.1642 201.693 90.7873 201.557 90.5307 201.284C90.2902 201.011 90.1538 200.723 90.1218 200.418L90.0737 199.624C89.5284 200.33 88.8147 200.875 87.9326 201.26C87.0505 201.645 86.1765 201.837 85.3105 201.837C84.4765 201.837 83.7307 201.669 83.0732 201.332C82.4157 200.979 81.9024 200.514 81.5336 199.937C81.1647 199.343 80.9803 198.686 80.9803 197.964ZM89.1595 198.854C89.352 198.63 89.5043 198.405 89.6166 198.181C89.7288 197.94 89.785 197.74 89.785 197.579V196.016C89.2878 195.823 88.7666 195.679 88.2213 195.583C87.676 195.47 87.1388 195.414 86.6095 195.414C85.535 195.414 84.6609 195.631 83.9873 196.064C83.3298 196.481 83.001 197.058 83.001 197.796C83.001 198.197 83.1053 198.59 83.3138 198.975C83.5383 199.343 83.859 199.648 84.276 199.889C84.709 200.129 85.2383 200.25 85.8638 200.25C86.5213 200.25 87.1468 200.121 87.7402 199.865C88.3336 199.592 88.8067 199.255 89.1595 198.854ZM106.185 201.597H104.068V194.572C104.068 193.241 103.859 192.271 103.442 191.661C103.041 191.036 102.424 190.723 101.59 190.723C101.012 190.723 100.435 190.868 99.8577 191.156C99.2964 191.445 98.7912 191.838 98.3422 192.335C97.9091 192.816 97.5964 193.377 97.4039 194.019V201.597H95.287V189.039H97.2115V191.734C97.5483 191.14 97.9813 190.627 98.5105 190.194C99.0398 189.761 99.6412 189.424 100.315 189.184C100.988 188.943 101.694 188.823 102.432 188.823C103.153 188.823 103.755 188.959 104.236 189.232C104.733 189.488 105.118 189.857 105.391 190.338C105.679 190.803 105.88 191.357 105.992 191.998C106.12 192.64 106.185 193.337 106.185 194.091V201.597ZM108.49 197.964C108.49 197.162 108.715 196.473 109.164 195.895C109.629 195.302 110.262 194.845 111.064 194.524C111.866 194.203 112.796 194.043 113.855 194.043C114.416 194.043 115.01 194.091 115.635 194.187C116.261 194.268 116.814 194.396 117.295 194.572V193.658C117.295 192.696 117.006 191.942 116.429 191.397C115.852 190.835 115.034 190.555 113.975 190.555C113.286 190.555 112.62 190.683 111.978 190.94C111.353 191.18 110.687 191.533 109.982 191.998L109.212 190.507C110.03 189.945 110.848 189.528 111.666 189.256C112.484 188.967 113.334 188.823 114.216 188.823C115.819 188.823 117.086 189.272 118.017 190.17C118.947 191.052 119.412 192.287 119.412 193.875V199.191C119.412 199.448 119.46 199.64 119.556 199.768C119.669 199.881 119.845 199.945 120.086 199.961V201.597C119.877 201.629 119.693 201.653 119.532 201.669C119.388 201.685 119.268 201.693 119.171 201.693C118.674 201.693 118.297 201.557 118.041 201.284C117.8 201.011 117.664 200.723 117.632 200.418L117.584 199.624C117.038 200.33 116.325 200.875 115.443 201.26C114.561 201.645 113.686 201.837 112.82 201.837C111.986 201.837 111.241 201.669 110.583 201.332C109.926 200.979 109.412 200.514 109.044 199.937C108.675 199.343 108.49 198.686 108.49 197.964ZM116.669 198.854C116.862 198.63 117.014 198.405 117.127 198.181C117.239 197.94 117.295 197.74 117.295 197.579V196.016C116.798 195.823 116.277 195.679 115.731 195.583C115.186 195.47 114.649 195.414 114.119 195.414C113.045 195.414 112.171 195.631 111.497 196.064C110.84 196.481 110.511 197.058 110.511 197.796C110.511 198.197 110.615 198.59 110.824 198.975C111.048 199.343 111.369 199.648 111.786 199.889C112.219 200.129 112.748 200.25 113.374 200.25C114.031 200.25 114.657 200.121 115.25 199.865C115.844 199.592 116.317 199.255 116.669 198.854Z" fill="#8A97EE"/>
<path d="M6.38135 85.9315C6.38135 41.9974 41.9972 6.38176 85.9312 6.38165C129.865 6.38165 165.481 41.9974 165.481 85.9315C165.481 129.865 129.865 165.481 85.9312 165.481C41.9972 165.481 6.38146 129.865 6.38135 85.9315Z" fill="white" stroke="#FFAFAF" stroke-width="12.7631"/>
<path d="M65.9775 88.0746C70.014 88.0746 73.8851 89.6613 76.7393 92.4848C79.5934 95.3082 81.1972 99.1374 81.1973 103.13C81.1973 106.108 80.3042 109.02 78.6318 111.496C76.9595 113.971 74.5826 115.901 71.8018 117.04C69.0209 118.18 65.9609 118.478 63.0088 117.897C60.0565 117.316 57.3443 115.882 55.2158 113.777C53.0873 111.671 51.638 108.988 51.0508 106.068C50.4635 103.147 50.7651 100.12 51.917 97.3686C53.0689 94.6177 55.0198 92.266 57.5225 90.6118C60.0251 88.9576 62.9676 88.0747 65.9775 88.0746ZM105.53 88.0746C109.567 88.0746 113.438 89.6614 116.292 92.4848C119.146 95.3082 120.75 99.1374 120.75 103.13C120.75 106.108 119.857 109.02 118.185 111.496C116.512 113.971 114.135 115.901 111.354 117.04C108.574 118.18 105.514 118.478 102.562 117.897C99.6093 117.316 96.897 115.882 94.7686 113.777C92.6401 111.671 91.1908 108.988 90.6035 106.068C90.0163 103.147 90.3178 100.12 91.4697 97.3686C92.6217 94.6177 94.5725 92.266 97.0752 90.6118C99.5779 88.9576 102.52 88.0747 105.53 88.0746ZM85.7607 54.1938C89.7969 54.1938 93.6683 55.7798 96.5225 58.603C99.3765 61.426 100.98 65.2549 100.98 69.2475C100.981 72.2253 100.088 75.1366 98.416 77.6127C96.744 80.0887 94.3677 82.0188 91.5869 83.1586C88.806 84.2984 85.7454 84.5968 82.793 84.0161C79.8406 83.4353 77.1286 82.0014 75 79.8959C72.8715 77.7905 71.4214 75.1083 70.834 72.1879C70.2466 69.2674 70.5484 66.2398 71.7002 63.4887C72.8521 60.7375 74.8028 58.3853 77.3057 56.7309C79.8083 55.0767 82.7508 54.1939 85.7607 54.1938Z" fill="url(#paint0_radial_2401_75)"/>
<defs>
<radialGradient id="paint0_radial_2401_75" cx="0" cy="0" r="1" gradientUnits="userSpaceOnUse" gradientTransform="translate(85.7542 86.1901) scale(34.9959 31.9962)">
<stop stop-color="#FFB900"/>
<stop offset="0.6" stop-color="#F95D8F"/>
<stop offset="0.999" stop-color="#F95353"/>
</radialGradient>
</defs>
</svg>
