<svg width="204" height="214" viewBox="0 0 204 214" fill="none" xmlns="http://www.w3.org/2000/svg">
<path d="M44.0015 188.052H45.8298L52.8062 205.132H50.4967L48.476 200.128H41.3071L39.3105 205.132H37.001L44.0015 188.052ZM47.9949 198.444L44.9156 190.554L41.7402 198.444H47.9949ZM55.0857 205.132V188.052H62.2065C62.9602 188.052 63.6499 188.212 64.2753 188.533C64.9008 188.838 65.4461 189.255 65.9112 189.784C66.3763 190.297 66.7371 190.882 66.9937 191.54C67.2503 192.181 67.3786 192.839 67.3786 193.513C67.3786 194.443 67.1701 195.333 66.7531 196.183C66.3362 197.017 65.7508 197.698 64.997 198.228C64.2432 198.741 63.3612 198.997 62.3508 198.997H57.2508V205.132H55.0857ZM57.2508 197.073H62.2305C62.8239 197.073 63.3371 196.913 63.7701 196.592C64.2192 196.271 64.564 195.838 64.8046 195.293C65.0612 194.747 65.1895 194.154 65.1895 193.513C65.1895 192.839 65.0451 192.238 64.7565 191.708C64.4678 191.163 64.0909 190.738 63.6258 190.433C63.1607 190.129 62.6475 189.976 62.0862 189.976H57.2508V197.073ZM70.0741 205.132V188.052H72.2392V205.132H70.0741ZM87.5559 205.372C86.6096 205.372 85.7516 205.204 84.9818 204.867C84.212 204.514 83.5464 204.041 82.9851 203.448C82.4238 202.838 81.9908 202.141 81.6861 201.355C81.3813 200.569 81.229 199.743 81.229 198.877C81.229 197.995 81.3813 197.161 81.6861 196.375C81.9908 195.589 82.4238 194.9 82.9851 194.306C83.5464 193.697 84.212 193.224 84.9818 192.887C85.7677 192.534 86.6257 192.358 87.5559 192.358C88.5021 192.358 89.3601 192.534 90.1299 192.887C90.8997 193.224 91.5653 193.697 92.1266 194.306C92.704 194.9 93.145 195.589 93.4497 196.375C93.7544 197.161 93.9068 197.995 93.9068 198.877C93.9068 199.743 93.7544 200.569 93.4497 201.355C93.145 202.141 92.712 202.838 92.1507 203.448C91.5893 204.041 90.9158 204.514 90.1299 204.867C89.3601 205.204 88.5021 205.372 87.5559 205.372ZM83.3941 198.901C83.3941 199.767 83.5785 200.553 83.9474 201.259C84.3323 201.964 84.8375 202.526 85.4629 202.943C86.0884 203.344 86.7861 203.544 87.5559 203.544C88.3257 203.544 89.0233 203.336 89.6488 202.919C90.2903 202.502 90.7955 201.94 91.1643 201.235C91.5492 200.513 91.7417 199.719 91.7417 198.853C91.7417 197.987 91.5492 197.201 91.1643 196.496C90.7955 195.79 90.2903 195.229 89.6488 194.812C89.0233 194.395 88.3257 194.186 87.5559 194.186C86.7861 194.186 86.0884 194.403 85.4629 194.836C84.8375 195.253 84.3323 195.814 83.9474 196.52C83.5785 197.225 83.3941 198.019 83.3941 198.901ZM96.3517 200.104V192.574H98.4687V199.695C98.4687 200.978 98.6932 201.94 99.1423 202.582C99.5913 203.223 100.257 203.544 101.139 203.544C101.716 203.544 102.27 203.424 102.799 203.183C103.344 202.927 103.833 202.566 104.266 202.101C104.699 201.636 105.036 201.082 105.277 200.441V192.574H107.394V202.726C107.394 202.983 107.442 203.175 107.538 203.304C107.65 203.416 107.827 203.48 108.067 203.496V205.132C107.827 205.164 107.634 205.18 107.49 205.18C107.362 205.196 107.233 205.204 107.105 205.204C106.704 205.204 106.359 205.084 106.071 204.843C105.782 204.587 105.63 204.274 105.613 203.905L105.565 202.438C105.02 203.368 104.282 204.089 103.352 204.603C102.438 205.116 101.436 205.372 100.345 205.372C99.03 205.372 98.0357 204.931 97.3621 204.049C96.6885 203.151 96.3517 201.836 96.3517 200.104ZM114.529 205.132L109.597 192.574H111.81L115.755 203.111L119.701 192.574H121.77L116.838 205.132H114.529ZM129.022 205.372C128.076 205.372 127.21 205.204 126.424 204.867C125.654 204.514 124.981 204.041 124.403 203.448C123.842 202.838 123.401 202.141 123.08 201.355C122.776 200.569 122.623 199.735 122.623 198.853C122.623 197.666 122.896 196.584 123.441 195.605C123.986 194.627 124.74 193.841 125.702 193.248C126.681 192.655 127.795 192.358 129.046 192.358C130.313 192.358 131.412 192.663 132.342 193.272C133.288 193.865 134.018 194.651 134.531 195.629C135.06 196.592 135.325 197.634 135.325 198.757C135.325 198.917 135.317 199.078 135.301 199.238C135.301 199.382 135.293 199.495 135.277 199.575H124.86C124.925 200.393 125.149 201.122 125.534 201.764C125.935 202.389 126.448 202.887 127.074 203.255C127.699 203.608 128.373 203.785 129.094 203.785C129.864 203.785 130.586 203.592 131.259 203.207C131.949 202.822 132.422 202.317 132.679 201.692L134.507 202.197C134.234 202.806 133.825 203.352 133.28 203.833C132.751 204.314 132.117 204.691 131.38 204.963C130.658 205.236 129.872 205.372 129.022 205.372ZM124.788 198.107H133.352C133.288 197.289 133.056 196.568 132.655 195.942C132.254 195.317 131.741 194.828 131.115 194.475C130.49 194.122 129.8 193.946 129.046 193.946C128.309 193.946 127.627 194.122 127.001 194.475C126.376 194.828 125.863 195.317 125.462 195.942C125.077 196.568 124.852 197.289 124.788 198.107ZM144.318 194.427C143.259 194.443 142.321 194.715 141.503 195.245C140.701 195.758 140.132 196.471 139.795 197.386V205.132H137.678V192.574H139.651V195.485C140.084 194.619 140.653 193.921 141.359 193.392C142.081 192.847 142.834 192.542 143.62 192.478C143.781 192.478 143.917 192.478 144.029 192.478C144.141 192.478 144.238 192.486 144.318 192.502V194.427ZM152.913 204.506C152.736 204.587 152.496 204.691 152.191 204.819C151.886 204.947 151.534 205.06 151.133 205.156C150.732 205.252 150.307 205.3 149.858 205.3C149.344 205.3 148.871 205.212 148.438 205.036C148.005 204.843 147.66 204.554 147.404 204.17C147.147 203.769 147.019 203.271 147.019 202.678V194.234H145.311V192.574H147.019V188.388H149.136V192.574H151.951V194.234H149.136V202.029C149.168 202.478 149.32 202.814 149.593 203.039C149.866 203.247 150.186 203.352 150.555 203.352C150.972 203.352 151.357 203.279 151.71 203.135C152.063 202.991 152.295 202.887 152.408 202.822L152.913 204.506ZM160.268 205.372C159.321 205.372 158.455 205.204 157.669 204.867C156.9 204.514 156.226 204.041 155.649 203.448C155.087 202.838 154.646 202.141 154.326 201.355C154.021 200.569 153.868 199.735 153.868 198.853C153.868 197.666 154.141 196.584 154.686 195.605C155.232 194.627 155.985 193.841 156.948 193.248C157.926 192.655 159.041 192.358 160.292 192.358C161.559 192.358 162.657 192.663 163.587 193.272C164.534 193.865 165.263 194.651 165.776 195.629C166.306 196.592 166.57 197.634 166.57 198.757C166.57 198.917 166.562 199.078 166.546 199.238C166.546 199.382 166.538 199.495 166.522 199.575H156.106C156.17 200.393 156.394 201.122 156.779 201.764C157.18 202.389 157.693 202.887 158.319 203.255C158.944 203.608 159.618 203.785 160.34 203.785C161.109 203.785 161.831 203.592 162.505 203.207C163.194 202.822 163.668 202.317 163.924 201.692L165.752 202.197C165.48 202.806 165.071 203.352 164.526 203.833C163.996 204.314 163.363 204.691 162.625 204.963C161.903 205.236 161.118 205.372 160.268 205.372ZM156.034 198.107H164.598C164.534 197.289 164.301 196.568 163.9 195.942C163.499 195.317 162.986 194.828 162.36 194.475C161.735 194.122 161.045 193.946 160.292 193.946C159.554 193.946 158.872 194.122 158.247 194.475C157.621 194.828 157.108 195.317 156.707 195.942C156.322 196.568 156.098 197.289 156.034 198.107Z" fill="#8A97EE"/>
<path d="M23.6143 85.9315C23.6143 41.9974 59.2301 6.38176 103.164 6.38165C147.098 6.38165 182.714 41.9974 182.714 85.9315C182.714 129.865 147.098 165.481 103.164 165.481C59.2301 165.481 23.6144 129.865 23.6143 85.9315Z" fill="white" stroke="#D2D6DC" stroke-width="12.7631"/>
<path d="M96.3222 68.4125C97.9959 70.0862 97.9959 72.5968 96.3222 74.1032L88.4557 81.9697L96.3222 90.0036C97.9959 91.51 97.9959 94.0206 96.3222 95.5269C95.6527 96.3638 94.6485 96.6985 93.6442 96.6985C92.4726 96.6985 91.4684 96.3638 90.6315 95.5269L79.9197 84.815C78.2459 83.3087 78.2459 80.7981 79.9197 79.1244L90.6315 68.4125C92.1379 66.9061 94.6485 66.9061 96.3222 68.4125ZM125.78 79.1244C127.454 80.7981 127.454 83.3087 125.78 84.815L115.068 95.5269C114.398 96.3638 113.394 96.6985 112.39 96.6985C111.218 96.6985 110.214 96.3638 109.545 95.5269C107.871 94.0206 107.871 91.51 109.545 90.0036L117.411 81.9697L109.377 74.1032C107.704 72.5968 107.704 70.0862 109.377 68.4125C110.884 66.9061 113.394 66.9061 115.068 68.4125L125.78 79.1244Z" fill="#061333"/>
<path opacity="0.4" d="M103.017 47.1561C126.617 47.1561 145.697 62.8892 145.697 81.9697C145.697 101.218 126.617 116.783 103.017 116.783C96.4896 116.783 90.4642 115.612 84.9409 113.603C80.7565 116.951 72.5553 122.139 61.5087 122.139C60.8392 122.139 60.337 121.972 60.1697 121.47C60.0023 120.968 60.0023 120.298 60.5044 119.963C60.5044 119.796 67.5341 112.432 69.5426 103.896C63.6845 97.8701 60.1697 90.3383 60.1697 81.9697C60.1697 62.8892 79.2502 47.1561 103.017 47.1561ZM96.3222 89.8362L88.4557 81.9697L96.3222 74.1032C97.9959 72.5968 97.9959 70.0862 96.3222 68.5799C94.8159 66.9061 92.3053 66.9061 90.7989 68.5799L80.087 79.2917C78.4133 80.7981 78.4133 83.3087 80.087 84.815L90.7989 95.5269C91.4684 96.3638 92.4726 96.6985 93.6442 96.6985C94.6485 96.6985 95.6527 96.3638 96.3222 95.5269C97.8286 94.0206 97.8286 91.51 96.3222 89.8362ZM125.78 84.815C127.454 83.3087 127.454 80.7981 125.947 79.2917L115.235 68.5799C113.562 66.9061 111.051 66.9061 109.545 68.5799C107.871 70.0862 107.871 72.5968 109.545 74.1032L117.411 81.9697L109.545 90.0036C107.871 91.51 107.871 94.0206 109.545 95.5269C110.214 96.3638 111.218 96.6985 112.39 96.6985C113.394 96.6985 114.398 96.3638 115.068 95.5269L125.78 84.815Z" fill="#061333"/>
</svg>
