<svg width="172" height="210" viewBox="0 0 172 210" fill="none" xmlns="http://www.w3.org/2000/svg">
<path d="M67.9563 199.049C68.261 199.257 68.678 199.458 69.2073 199.65C69.7525 199.827 70.394 199.915 71.1318 199.915C71.8855 199.915 72.503 199.795 72.9841 199.554C73.4653 199.298 73.8341 198.921 74.0907 198.424C74.3473 197.91 74.5237 197.261 74.62 196.475C74.7162 195.689 74.7643 194.759 74.7643 193.684V184.519H76.9294V193.203C76.9294 194.47 76.8653 195.633 76.737 196.691C76.6086 197.75 76.352 198.672 75.9671 199.458C75.5822 200.228 75.0049 200.821 74.2351 201.238C73.4813 201.655 72.4709 201.864 71.2039 201.864C70.4021 201.864 69.6964 201.775 69.087 201.599C68.4775 201.423 67.9162 201.158 67.403 200.805L67.9563 199.049ZM80.4982 201.599V189.041H82.6152V201.599H80.4982ZM80.4982 186.684V184.038H82.6152V186.684H80.4982ZM92.6821 190.894C91.6236 190.91 90.6854 191.183 89.8675 191.712C89.0656 192.225 88.4963 192.939 88.1595 193.853V201.599H86.0425V189.041H88.0151V191.952C88.4482 191.086 89.0175 190.389 89.7232 189.859C90.4449 189.314 91.1986 189.009 91.9845 188.945C92.1449 188.945 92.2812 188.945 92.3934 188.945C92.5057 188.945 92.6019 188.953 92.6821 188.969V190.894ZM93.7955 197.966C93.7955 197.165 94.02 196.475 94.4691 195.898C94.9342 195.304 95.5677 194.847 96.3695 194.526C97.1714 194.206 98.1016 194.045 99.1601 194.045C99.7214 194.045 100.315 194.093 100.94 194.19C101.566 194.27 102.119 194.398 102.6 194.574V193.66C102.6 192.698 102.312 191.944 101.734 191.399C101.157 190.838 100.339 190.557 99.2804 190.557C98.5908 190.557 97.9252 190.685 97.2837 190.942C96.6582 191.183 95.9927 191.535 95.287 192L94.5172 190.509C95.3351 189.948 96.153 189.531 96.971 189.258C97.7889 188.969 98.6389 188.825 99.5209 188.825C101.125 188.825 102.392 189.274 103.322 190.172C104.252 191.054 104.717 192.289 104.717 193.877V199.193C104.717 199.45 104.765 199.642 104.861 199.771C104.974 199.883 105.15 199.947 105.391 199.963V201.599C105.182 201.631 104.998 201.655 104.837 201.671C104.693 201.687 104.573 201.695 104.477 201.695C103.979 201.695 103.603 201.559 103.346 201.286C103.105 201.014 102.969 200.725 102.937 200.42L102.889 199.626C102.344 200.332 101.63 200.877 100.748 201.262C99.8658 201.647 98.9917 201.84 98.1257 201.84C97.2917 201.84 96.546 201.671 95.8884 201.334C95.2309 200.982 94.7177 200.516 94.3488 199.939C93.9799 199.346 93.7955 198.688 93.7955 197.966ZM101.975 198.857C102.167 198.632 102.32 198.407 102.432 198.183C102.544 197.942 102.6 197.742 102.6 197.582V196.018C102.103 195.825 101.582 195.681 101.037 195.585C100.491 195.473 99.954 195.416 99.4247 195.416C98.3502 195.416 97.4761 195.633 96.8026 196.066C96.145 196.483 95.8162 197.06 95.8162 197.798C95.8162 198.199 95.9205 198.592 96.129 198.977C96.3535 199.346 96.6743 199.65 97.0912 199.891C97.5243 200.132 98.0535 200.252 98.679 200.252C99.3365 200.252 99.962 200.124 100.555 199.867C101.149 199.594 101.622 199.257 101.975 198.857Z" fill="#8A97EE"/>
<path d="M6.38135 85.9315C6.38135 41.9974 41.9972 6.38176 85.9312 6.38165C129.865 6.38165 165.481 41.9974 165.481 85.9315C165.481 129.865 129.865 165.481 85.9312 165.481C41.9972 165.481 6.38146 129.865 6.38135 85.9315Z" fill="white" stroke="#BAD8FF" stroke-width="12.7631"/>
<path d="M129.668 82.6068L90.5403 43.8935L86.7415 40.1349L57.2774 69.2862L43.8087 82.6123C43.1365 83.2813 42.7593 84.1865 42.7593 85.1298C42.7593 86.0731 43.1365 86.9779 43.8087 87.6469L70.7292 114.28L86.7415 130.124L116.205 100.973L116.661 100.524L129.685 87.6657C130.021 87.3365 130.287 86.9452 130.47 86.5141C130.652 86.083 130.747 85.6206 130.749 85.1532C130.751 84.6859 130.659 84.223 130.48 83.7906C130.301 83.3581 130.037 82.9646 129.704 82.633L129.685 82.6142L129.668 82.6068ZM86.728 98.4339L73.2783 85.1248L86.728 71.8179L100.18 85.1248L86.728 98.4339Z" fill="#2684FF"/>
</svg>
