<svg width="172" height="210" viewBox="0 0 172 210" fill="none" xmlns="http://www.w3.org/2000/svg">
<path d="M58.1399 202.506V189.468L52.5107 199.499H51.1875L45.5343 189.468V202.506H43.3692V185.426H45.6545L51.8371 196.516L58.0437 185.426H60.305V202.506H58.1399ZM69.3318 202.747C68.3856 202.747 67.5276 202.579 66.7578 202.242C65.988 201.889 65.3224 201.416 64.7611 200.822C64.1998 200.213 63.7667 199.515 63.462 198.73C63.1573 197.944 63.0049 197.118 63.0049 196.252C63.0049 195.37 63.1573 194.536 63.462 193.75C63.7667 192.964 64.1998 192.274 64.7611 191.681C65.3224 191.071 65.988 190.598 66.7578 190.262C67.5436 189.909 68.4016 189.732 69.3318 189.732C70.278 189.732 71.1361 189.909 71.9059 190.262C72.6757 190.598 73.3412 191.071 73.9026 191.681C74.4799 192.274 74.921 192.964 75.2257 193.75C75.5304 194.536 75.6827 195.37 75.6827 196.252C75.6827 197.118 75.5304 197.944 75.2257 198.73C74.921 199.515 74.4879 200.213 73.9266 200.822C73.3653 201.416 72.6917 201.889 71.9059 202.242C71.1361 202.579 70.278 202.747 69.3318 202.747ZM65.17 196.276C65.17 197.142 65.3545 197.928 65.7233 198.633C66.1082 199.339 66.6134 199.9 67.2389 200.317C67.8644 200.718 68.562 200.919 69.3318 200.919C70.1016 200.919 70.7993 200.71 71.4247 200.293C72.0662 199.876 72.5714 199.315 72.9403 198.609C73.3252 197.888 73.5177 197.094 73.5177 196.228C73.5177 195.362 73.3252 194.576 72.9403 193.87C72.5714 193.164 72.0662 192.603 71.4247 192.186C70.7993 191.769 70.1016 191.561 69.3318 191.561C68.562 191.561 67.8644 191.777 67.2389 192.21C66.6134 192.627 66.1082 193.188 65.7233 193.894C65.3545 194.6 65.17 195.394 65.17 196.276ZM89.1456 202.506H87.0286V195.482C87.0286 194.151 86.8201 193.18 86.4031 192.571C86.0022 191.946 85.3847 191.633 84.5508 191.633C83.9734 191.633 83.3961 191.777 82.8187 192.066C82.2574 192.355 81.7522 192.747 81.3031 193.245C80.8701 193.726 80.5574 194.287 80.3649 194.929V202.506H78.248V189.949H80.1725V192.643C80.5093 192.05 80.9423 191.537 81.4715 191.104C82.0008 190.671 82.6022 190.334 83.2758 190.093C83.9494 189.853 84.655 189.732 85.3928 189.732C86.1145 189.732 86.7159 189.869 87.197 190.141C87.6942 190.398 88.0791 190.767 88.3517 191.248C88.6404 191.713 88.8409 192.266 88.9531 192.908C89.0814 193.549 89.1456 194.247 89.1456 195.001V202.506ZM91.6196 196.252C91.6196 195.065 91.8602 193.982 92.3413 193.004C92.8385 192.01 93.5121 191.216 94.3621 190.622C95.2281 190.029 96.2144 189.732 97.321 189.732C98.3314 189.732 99.2375 189.997 100.039 190.526C100.841 191.055 101.467 191.697 101.916 192.451V184.945H104.033V200.101C104.033 200.357 104.081 200.55 104.177 200.678C104.289 200.79 104.466 200.854 104.706 200.871V202.506C104.305 202.571 103.993 202.603 103.768 202.603C103.351 202.603 102.982 202.458 102.662 202.17C102.357 201.881 102.205 201.56 102.205 201.207V200.149C101.707 200.951 101.042 201.584 100.208 202.049C99.3739 202.514 98.5078 202.747 97.6097 202.747C96.7437 202.747 95.9418 202.579 95.2041 202.242C94.4824 201.889 93.8489 201.408 93.3036 200.798C92.7744 200.189 92.3574 199.499 92.0527 198.73C91.764 197.944 91.6196 197.118 91.6196 196.252ZM101.916 198.104V194.496C101.723 193.95 101.411 193.461 100.978 193.028C100.545 192.579 100.055 192.226 99.5102 191.97C98.9809 191.697 98.4517 191.561 97.9225 191.561C97.297 191.561 96.7276 191.697 96.2144 191.97C95.7173 192.226 95.2843 192.579 94.9154 193.028C94.5626 193.461 94.2899 193.958 94.0975 194.52C93.905 195.081 93.8088 195.666 93.8088 196.276C93.8088 196.901 93.913 197.495 94.1215 198.056C94.3461 198.617 94.6508 199.114 95.0357 199.547C95.4366 199.98 95.8937 200.317 96.4069 200.558C96.9361 200.798 97.5055 200.919 98.1149 200.919C98.4998 200.919 98.8927 200.846 99.2937 200.702C99.7107 200.558 100.104 200.357 100.472 200.101C100.841 199.844 101.154 199.547 101.411 199.211C101.667 198.858 101.836 198.489 101.916 198.104ZM106.581 198.874C106.581 198.072 106.805 197.382 107.254 196.805C107.719 196.212 108.353 195.755 109.155 195.434C109.956 195.113 110.887 194.953 111.945 194.953C112.506 194.953 113.1 195.001 113.725 195.097C114.351 195.177 114.904 195.305 115.385 195.482V194.568C115.385 193.605 115.097 192.852 114.519 192.306C113.942 191.745 113.124 191.464 112.065 191.464C111.376 191.464 110.71 191.593 110.069 191.849C109.443 192.09 108.778 192.443 108.072 192.908L107.302 191.416C108.12 190.855 108.938 190.438 109.756 190.165C110.574 189.877 111.424 189.732 112.306 189.732C113.91 189.732 115.177 190.181 116.107 191.08C117.037 191.962 117.502 193.196 117.502 194.784V200.101C117.502 200.357 117.55 200.55 117.647 200.678C117.759 200.79 117.935 200.854 118.176 200.871V202.506C117.967 202.538 117.783 202.563 117.623 202.579C117.478 202.595 117.358 202.603 117.262 202.603C116.764 202.603 116.388 202.466 116.131 202.194C115.89 201.921 115.754 201.632 115.722 201.328L115.674 200.534C115.129 201.239 114.415 201.785 113.533 202.17C112.651 202.554 111.777 202.747 110.911 202.747C110.077 202.747 109.331 202.579 108.673 202.242C108.016 201.889 107.503 201.424 107.134 200.846C106.765 200.253 106.581 199.596 106.581 198.874ZM114.76 199.764C114.952 199.539 115.105 199.315 115.217 199.09C115.329 198.85 115.385 198.649 115.385 198.489V196.925C114.888 196.733 114.367 196.588 113.822 196.492C113.276 196.38 112.739 196.324 112.21 196.324C111.135 196.324 110.261 196.54 109.588 196.973C108.93 197.39 108.601 197.968 108.601 198.705C108.601 199.106 108.706 199.499 108.914 199.884C109.139 200.253 109.459 200.558 109.876 200.798C110.309 201.039 110.839 201.159 111.464 201.159C112.122 201.159 112.747 201.031 113.34 200.774C113.934 200.502 114.407 200.165 114.76 199.764ZM121.065 205.922C121.274 205.938 121.482 205.954 121.691 205.971C121.899 206.003 122.06 206.019 122.172 206.019C122.428 206.019 122.653 205.93 122.845 205.754C123.038 205.578 123.246 205.233 123.471 204.72C123.711 204.222 124.016 203.485 124.385 202.506L119.069 189.949H121.306L125.54 200.365L129.365 189.949H131.458L125.347 205.802C125.203 206.171 124.986 206.516 124.698 206.837C124.425 207.173 124.072 207.438 123.639 207.63C123.206 207.823 122.685 207.919 122.076 207.919C121.931 207.919 121.779 207.911 121.619 207.895C121.474 207.879 121.29 207.847 121.065 207.799V205.922Z" fill="#8A97EE"/>
<path d="M6.38135 85.9315C6.38135 41.9974 41.9972 6.38176 85.9312 6.38165C129.865 6.38165 165.481 41.9974 165.481 85.9315C165.481 129.865 129.865 165.481 85.9312 165.481C41.9972 165.481 6.38146 129.865 6.38135 85.9315Z" fill="white" stroke="#FFECA3" stroke-width="12.7631"/>
<g clip-path="url(#clip0_2401_103)">
<path d="M83.1092 110.506C78.8828 110.402 75.3959 108.528 73.1694 104.616C70.8872 100.573 70.9866 96.4337 73.4199 92.4902C79.2128 83.1049 85.0813 73.7716 90.9139 64.4143C92.1067 62.5004 93.2717 60.5587 94.5201 58.6808C96.1774 56.1124 98.767 54.2955 101.737 53.6172C104.708 52.9388 107.825 53.4526 110.424 55.049C115.915 58.4491 117.751 65.521 114.332 71.0946C107.342 82.5349 100.253 93.9192 93.0649 105.248C90.8503 108.752 87.4907 110.442 83.1092 110.506Z" fill="#FFCB00"/>
<path d="M46.8092 110.506C42.5431 110.402 39.0761 108.444 36.8933 104.548C34.6429 100.505 34.7861 96.3577 37.2273 92.4142C43.4589 82.3671 49.7183 72.3345 56.0055 62.3166C56.8007 61.0221 57.5959 59.6956 58.4467 58.441C60.1721 55.9284 62.8028 54.1891 65.7819 53.5915C68.761 52.9938 71.8547 53.5847 74.4078 55.2391C76.9609 56.8935 78.7732 59.4814 79.4608 62.455C80.1484 65.4286 79.6574 68.5543 78.0918 71.1705C71.126 82.4736 64.0647 93.7367 56.9995 104.988C54.7054 108.636 51.3299 110.442 46.8092 110.506Z" fill="#FF3D57"/>
<path d="M119.644 87.5958C126.073 87.6277 131.277 92.7619 131.265 99.0587C131.265 105.451 125.922 110.606 119.433 110.526C112.944 110.446 107.831 105.367 107.839 99.0427C107.847 92.626 113.072 87.5558 119.644 87.5958Z" fill="#00D647"/>
</g>
<defs>
<clipPath id="clip0_2401_103">
<rect width="96.6347" height="60.1688" fill="white" transform="translate(34.6431 51.0523)"/>
</clipPath>
</defs>
</svg>
