<svg width="204" height="214" viewBox="0 0 204 214" fill="none" xmlns="http://www.w3.org/2000/svg">
<path d="M26.6416 205.132V192.093L21.0123 202.125H19.6892L14.0359 192.093V205.132H11.8709V188.052H14.1562L20.3388 199.142L26.5454 188.052H28.8067V205.132H26.6416ZM32.5601 205.132V192.574H34.677V205.132H32.5601ZM32.5601 190.217V187.57H34.677V190.217H32.5601ZM43.6614 205.372C42.7152 205.372 41.8491 205.204 41.0633 204.867C40.2935 204.514 39.6199 204.033 39.0425 203.424C38.4812 202.814 38.0402 202.117 37.7194 201.331C37.4147 200.545 37.2624 199.711 37.2624 198.829C37.2624 197.642 37.527 196.56 38.0562 195.581C38.5855 194.603 39.3312 193.825 40.2935 193.248C41.2557 192.654 42.3704 192.358 43.6373 192.358C44.8722 192.358 45.9468 192.638 46.8609 193.2C47.7911 193.745 48.4807 194.483 48.9298 195.413L46.8609 196.062C46.5402 195.469 46.0911 195.012 45.5137 194.691C44.9364 194.354 44.2949 194.186 43.5892 194.186C42.8194 194.186 42.1138 194.387 41.4722 194.787C40.8468 195.188 40.3496 195.742 39.9807 196.447C39.6119 197.137 39.4274 197.931 39.4274 198.829C39.4274 199.711 39.6119 200.513 39.9807 201.235C40.3656 201.94 40.8708 202.502 41.4963 202.919C42.1378 203.336 42.8435 203.544 43.6133 203.544C44.1104 203.544 44.5836 203.456 45.0326 203.279C45.4977 203.103 45.8987 202.87 46.2354 202.582C46.5883 202.277 46.8288 201.948 46.9571 201.595L49.026 202.221C48.7694 202.83 48.3765 203.376 47.8472 203.857C47.334 204.322 46.7166 204.691 45.9949 204.963C45.2892 205.236 44.5114 205.372 43.6614 205.372ZM58.0643 194.427C57.0058 194.443 56.0676 194.715 55.2497 195.245C54.4478 195.758 53.8785 196.471 53.5417 197.386V205.132H51.4247V192.574H53.3973V195.485C53.8304 194.619 54.3997 193.921 55.1054 193.392C55.8271 192.847 56.5808 192.542 57.3667 192.478C57.527 192.478 57.6634 192.478 57.7756 192.478C57.8879 192.478 57.9841 192.486 58.0643 192.502V194.427ZM65.3435 205.372C64.3973 205.372 63.5392 205.204 62.7694 204.867C61.9996 204.514 61.3341 204.041 60.7727 203.448C60.2114 202.838 59.7784 202.141 59.4737 201.355C59.169 200.569 59.0166 199.743 59.0166 198.877C59.0166 197.995 59.169 197.161 59.4737 196.375C59.7784 195.589 60.2114 194.9 60.7727 194.306C61.3341 193.697 61.9996 193.224 62.7694 192.887C63.5553 192.534 64.4133 192.358 65.3435 192.358C66.2897 192.358 67.1477 192.534 67.9175 192.887C68.6873 193.224 69.3529 193.697 69.9142 194.306C70.4916 194.9 70.9326 195.589 71.2373 196.375C71.5421 197.161 71.6944 197.995 71.6944 198.877C71.6944 199.743 71.5421 200.569 71.2373 201.355C70.9326 202.141 70.4996 202.838 69.9383 203.448C69.377 204.041 68.7034 204.514 67.9175 204.867C67.1477 205.204 66.2897 205.372 65.3435 205.372ZM61.1817 198.901C61.1817 199.767 61.3661 200.553 61.735 201.259C62.1199 201.964 62.6251 202.526 63.2506 202.943C63.876 203.344 64.5737 203.544 65.3435 203.544C66.1133 203.544 66.8109 203.336 67.4364 202.919C68.0779 202.502 68.5831 201.94 68.952 201.235C69.3369 200.513 69.5293 199.719 69.5293 198.853C69.5293 197.987 69.3369 197.201 68.952 196.495C68.5831 195.79 68.0779 195.228 67.4364 194.812C66.8109 194.395 66.1133 194.186 65.3435 194.186C64.5737 194.186 63.876 194.403 63.2506 194.836C62.6251 195.253 62.1199 195.814 61.735 196.52C61.3661 197.225 61.1817 198.019 61.1817 198.901ZM78.5658 205.372C77.5233 205.372 76.545 205.204 75.6309 204.867C74.7167 204.514 73.9309 203.993 73.2733 203.303L74.0912 201.812C74.8129 202.486 75.5346 202.967 76.2563 203.255C76.978 203.544 77.7158 203.688 78.4695 203.688C79.3356 203.688 80.0412 203.528 80.5865 203.207C81.1318 202.87 81.4044 202.381 81.4044 201.74C81.4044 201.275 81.2601 200.93 80.9714 200.705C80.6988 200.481 80.3058 200.296 79.7926 200.152C79.2794 199.992 78.67 199.815 77.9643 199.623C77.0983 199.366 76.3686 199.094 75.7752 198.805C75.1818 198.516 74.7327 198.155 74.428 197.722C74.1233 197.289 73.971 196.744 73.971 196.087C73.971 195.285 74.1794 194.611 74.5964 194.066C75.0134 193.504 75.5827 193.079 76.3044 192.791C77.0422 192.502 77.8761 192.358 78.8063 192.358C79.7365 192.358 80.5785 192.502 81.3323 192.791C82.086 193.079 82.7356 193.504 83.2808 194.066L82.3186 195.533C81.8214 195.02 81.2761 194.643 80.6827 194.403C80.0893 194.146 79.4238 194.018 78.686 194.018C78.253 194.018 77.828 194.074 77.411 194.186C76.9941 194.282 76.6493 194.467 76.3766 194.739C76.104 194.996 75.9677 195.365 75.9677 195.846C75.9677 196.247 76.0719 196.568 76.2804 196.808C76.5049 197.033 76.8257 197.225 77.2426 197.386C77.6757 197.546 78.1969 197.722 78.8063 197.915C79.7525 198.187 80.5705 198.46 81.2601 198.733C81.9657 199.005 82.511 199.358 82.8959 199.791C83.2808 200.224 83.4733 200.826 83.4733 201.595C83.4733 202.782 83.0242 203.712 82.1261 204.386C81.228 205.044 80.0412 205.372 78.5658 205.372ZM91.4909 205.372C90.5447 205.372 89.6866 205.204 88.9168 204.867C88.147 204.514 87.4815 204.041 86.9201 203.448C86.3588 202.838 85.9258 202.141 85.6211 201.355C85.3164 200.569 85.164 199.743 85.164 198.877C85.164 197.995 85.3164 197.161 85.6211 196.375C85.9258 195.589 86.3588 194.9 86.9201 194.306C87.4815 193.697 88.147 193.224 88.9168 192.887C89.7027 192.534 90.5607 192.358 91.4909 192.358C92.4371 192.358 93.2951 192.534 94.0649 192.887C94.8347 193.224 95.5003 193.697 96.0616 194.306C96.639 194.9 97.08 195.589 97.3847 196.375C97.6895 197.161 97.8418 197.995 97.8418 198.877C97.8418 199.743 97.6895 200.569 97.3847 201.355C97.08 202.141 96.647 202.838 96.0857 203.448C95.5244 204.041 94.8508 204.514 94.0649 204.867C93.2951 205.204 92.4371 205.372 91.4909 205.372ZM87.3291 198.901C87.3291 199.767 87.5135 200.553 87.8824 201.259C88.2673 201.964 88.7725 202.526 89.398 202.943C90.0234 203.344 90.7211 203.544 91.4909 203.544C92.2607 203.544 92.9583 203.336 93.5838 202.919C94.2253 202.502 94.7305 201.94 95.0994 201.235C95.4843 200.513 95.6767 199.719 95.6767 198.853C95.6767 197.987 95.4843 197.201 95.0994 196.495C94.7305 195.79 94.2253 195.228 93.5838 194.812C92.9583 194.395 92.2607 194.186 91.4909 194.186C90.7211 194.186 90.0234 194.403 89.398 194.836C88.7725 195.253 88.2673 195.814 87.8824 196.52C87.5135 197.225 87.3291 198.019 87.3291 198.901ZM100.869 205.132V194.234H99.1612V192.574H100.869V192.31C100.869 191.283 101.022 190.401 101.326 189.663C101.647 188.91 102.096 188.332 102.673 187.931C103.251 187.53 103.932 187.33 104.718 187.33C105.215 187.33 105.705 187.402 106.186 187.546C106.667 187.675 107.1 187.859 107.485 188.1L106.955 189.663C106.731 189.503 106.45 189.375 106.114 189.279C105.793 189.182 105.472 189.134 105.151 189.134C104.462 189.134 103.924 189.407 103.539 189.952C103.171 190.481 102.986 191.243 102.986 192.237V192.574H106.33V194.234H102.986V205.132H100.869ZM114.937 204.506C114.76 204.586 114.52 204.691 114.215 204.819C113.91 204.947 113.558 205.06 113.157 205.156C112.756 205.252 112.331 205.3 111.882 205.3C111.368 205.3 110.895 205.212 110.462 205.036C110.029 204.843 109.684 204.554 109.428 204.17C109.171 203.769 109.043 203.271 109.043 202.678V194.234H107.335V192.574H109.043V188.388H111.16V192.574H113.975V194.234H111.16V202.028C111.192 202.478 111.344 202.814 111.617 203.039C111.89 203.247 112.21 203.352 112.579 203.352C112.996 203.352 113.381 203.279 113.734 203.135C114.087 202.991 114.319 202.886 114.432 202.822L114.937 204.506ZM134.909 189.976H129.015V205.132H126.85V189.976H120.956V188.052H134.909V189.976ZM139.911 205.372C138.965 205.372 138.099 205.204 137.313 204.867C136.543 204.514 135.87 204.041 135.292 203.448C134.731 202.838 134.29 202.141 133.969 201.355C133.664 200.569 133.512 199.735 133.512 198.853C133.512 197.666 133.785 196.584 134.33 195.605C134.875 194.627 135.629 193.841 136.591 193.248C137.57 192.654 138.684 192.358 139.935 192.358C141.202 192.358 142.301 192.662 143.231 193.272C144.177 193.865 144.907 194.651 145.42 195.629C145.949 196.592 146.214 197.634 146.214 198.757C146.214 198.917 146.206 199.078 146.19 199.238C146.19 199.382 146.182 199.495 146.166 199.575H135.749C135.813 200.393 136.038 201.122 136.423 201.764C136.824 202.389 137.337 202.886 137.962 203.255C138.588 203.608 139.262 203.785 139.983 203.785C140.753 203.785 141.475 203.592 142.148 203.207C142.838 202.822 143.311 202.317 143.568 201.692L145.396 202.197C145.123 202.806 144.714 203.352 144.169 203.833C143.64 204.314 143.006 204.691 142.269 204.963C141.547 205.236 140.761 205.372 139.911 205.372ZM135.677 198.107H144.241C144.177 197.289 143.945 196.568 143.544 195.942C143.143 195.317 142.629 194.828 142.004 194.475C141.379 194.122 140.689 193.945 139.935 193.945C139.197 193.945 138.516 194.122 137.89 194.475C137.265 194.828 136.752 195.317 136.351 195.942C135.966 196.568 135.741 197.289 135.677 198.107ZM147.581 201.499C147.581 200.697 147.805 200.008 148.254 199.43C148.719 198.837 149.353 198.38 150.155 198.059C150.957 197.738 151.887 197.578 152.945 197.578C153.507 197.578 154.1 197.626 154.726 197.722C155.351 197.803 155.904 197.931 156.385 198.107V197.193C156.385 196.231 156.097 195.477 155.519 194.932C154.942 194.37 154.124 194.09 153.066 194.09C152.376 194.09 151.711 194.218 151.069 194.475C150.444 194.715 149.778 195.068 149.072 195.533L148.302 194.042C149.12 193.48 149.938 193.063 150.756 192.791C151.574 192.502 152.424 192.358 153.306 192.358C154.91 192.358 156.177 192.807 157.107 193.705C158.037 194.587 158.502 195.822 158.502 197.41V202.726C158.502 202.983 158.551 203.175 158.647 203.303C158.759 203.416 158.935 203.48 159.176 203.496V205.132C158.968 205.164 158.783 205.188 158.623 205.204C158.478 205.22 158.358 205.228 158.262 205.228C157.765 205.228 157.388 205.092 157.131 204.819C156.891 204.546 156.754 204.258 156.722 203.953L156.674 203.159C156.129 203.865 155.415 204.41 154.533 204.795C153.651 205.18 152.777 205.372 151.911 205.372C151.077 205.372 150.331 205.204 149.674 204.867C149.016 204.514 148.503 204.049 148.134 203.472C147.765 202.878 147.581 202.221 147.581 201.499ZM155.76 202.389C155.952 202.165 156.105 201.94 156.217 201.716C156.329 201.475 156.385 201.275 156.385 201.114V199.551C155.888 199.358 155.367 199.214 154.822 199.118C154.277 199.005 153.739 198.949 153.21 198.949C152.136 198.949 151.261 199.166 150.588 199.599C149.93 200.016 149.602 200.593 149.602 201.331C149.602 201.732 149.706 202.125 149.914 202.51C150.139 202.878 150.46 203.183 150.877 203.424C151.31 203.664 151.839 203.785 152.464 203.785C153.122 203.785 153.747 203.656 154.341 203.4C154.934 203.127 155.407 202.79 155.76 202.389ZM180.82 205.132H178.703V198.107C178.703 196.792 178.487 195.822 178.053 195.196C177.637 194.571 177.011 194.258 176.177 194.258C175.327 194.258 174.557 194.571 173.868 195.196C173.178 195.806 172.689 196.6 172.4 197.578V205.132H170.283V198.107C170.283 196.776 170.075 195.806 169.658 195.196C169.241 194.571 168.615 194.258 167.781 194.258C166.947 194.258 166.178 194.563 165.472 195.172C164.782 195.766 164.293 196.56 164.004 197.554V205.132H161.887V192.574H163.812V195.269C164.325 194.338 164.991 193.625 165.809 193.128C166.627 192.614 167.549 192.358 168.575 192.358C169.618 192.358 170.452 192.646 171.077 193.224C171.703 193.785 172.087 194.515 172.232 195.413C172.793 194.419 173.475 193.665 174.277 193.152C175.078 192.622 175.993 192.358 177.019 192.358C177.741 192.358 178.342 192.494 178.823 192.767C179.32 193.023 179.713 193.392 180.002 193.873C180.291 194.338 180.499 194.892 180.628 195.533C180.756 196.175 180.82 196.872 180.82 197.626V205.132ZM188.418 205.372C187.375 205.372 186.397 205.204 185.483 204.867C184.569 204.514 183.783 203.993 183.125 203.303L183.943 201.812C184.665 202.486 185.387 202.967 186.108 203.255C186.83 203.544 187.568 203.688 188.321 203.688C189.188 203.688 189.893 203.528 190.438 203.207C190.984 202.87 191.256 202.381 191.256 201.74C191.256 201.275 191.112 200.93 190.823 200.705C190.551 200.481 190.158 200.296 189.645 200.152C189.131 199.992 188.522 199.815 187.816 199.623C186.95 199.366 186.221 199.094 185.627 198.805C185.034 198.516 184.585 198.155 184.28 197.722C183.975 197.289 183.823 196.744 183.823 196.087C183.823 195.285 184.031 194.611 184.448 194.066C184.865 193.504 185.435 193.079 186.156 192.791C186.894 192.502 187.728 192.358 188.658 192.358C189.588 192.358 190.43 192.502 191.184 192.791C191.938 193.079 192.588 193.504 193.133 194.066L192.171 195.533C191.673 195.02 191.128 194.643 190.535 194.403C189.941 194.146 189.276 194.018 188.538 194.018C188.105 194.018 187.68 194.074 187.263 194.186C186.846 194.282 186.501 194.467 186.229 194.739C185.956 194.996 185.82 195.365 185.82 195.846C185.82 196.247 185.924 196.568 186.132 196.808C186.357 197.033 186.678 197.225 187.095 197.386C187.528 197.546 188.049 197.722 188.658 197.915C189.605 198.187 190.422 198.46 191.112 198.733C191.818 199.005 192.363 199.358 192.748 199.791C193.133 200.224 193.325 200.826 193.325 201.595C193.325 202.782 192.876 203.712 191.978 204.386C191.08 205.044 189.893 205.372 188.418 205.372Z" fill="#8A97EE"/>
<path d="M23.6143 85.9315C23.6143 41.9974 59.2301 6.38176 103.164 6.38165C147.098 6.38165 182.714 41.9974 182.714 85.9315C182.714 129.865 147.098 165.481 103.164 165.481C59.2301 165.481 23.6144 129.865 23.6143 85.9315Z" fill="white" stroke="#C1C5F6" stroke-width="12.7631"/>
<path d="M105.686 72.852C112.01 72.852 117.136 67.7256 117.136 61.402C117.136 55.0783 112.01 49.9519 105.686 49.9519C99.3622 49.9519 94.2358 55.0783 94.2358 61.402C94.2358 67.7256 99.3622 72.852 105.686 72.852Z" fill="#7B83EB"/>
<path opacity="0.1" d="M104.868 63.8448H94.4976L94.5507 64.071V64.0867L94.6038 64.2973C95.3567 67.1534 97.1846 69.6079 99.7053 71.1475C102.226 72.6872 105.244 73.1928 108.129 72.5587V67.1219C108.132 66.6919 108.05 66.2656 107.887 65.8675C107.724 65.4694 107.485 65.1075 107.181 64.8025C106.878 64.4975 106.518 64.2555 106.121 64.0904C105.724 63.9254 105.298 63.8406 104.868 63.8408V63.8448Z" fill="black"/>
<path opacity="0.2" d="M102.428 66.3015H95.3472C96.2771 68.2557 97.7415 69.9066 99.5708 71.063C101.4 72.2194 103.52 72.8341 105.684 72.8359V69.5589C105.681 68.6958 105.337 67.8687 104.727 67.2584C104.117 66.6481 103.29 66.3041 102.426 66.3015H102.428Z" fill="black"/>
<path d="M131.432 73.6592C136.168 73.6592 140.008 69.8195 140.008 65.0829C140.008 60.3464 136.168 56.5067 131.432 56.5067C126.695 56.5067 122.855 60.3464 122.855 65.0829C122.855 69.8195 126.695 73.6592 131.432 73.6592Z" fill="#5059C9"/>
<path d="M138.794 76.1158H119.517C119.31 76.1143 119.104 76.1539 118.913 76.2324C118.721 76.3109 118.547 76.4268 118.401 76.5732C118.254 76.7197 118.138 76.8938 118.06 77.0854C117.981 77.277 117.942 77.4823 117.943 77.6894V97.576C117.888 100.454 118.825 103.264 120.596 105.533C122.367 107.802 124.865 109.393 127.67 110.039C129.248 110.37 130.876 110.388 132.461 110.089C134.046 109.791 135.556 109.183 136.906 108.301C138.256 107.419 139.419 106.279 140.328 104.947C141.237 103.615 141.875 102.117 142.204 100.538C142.38 99.712 142.468 98.8694 142.466 98.0246V79.7961C142.467 79.3131 142.373 78.8347 142.188 78.3883C142.004 77.9419 141.733 77.5363 141.392 77.1949C141.05 76.8535 140.644 76.5829 140.198 76.3987C139.751 76.2145 139.273 76.1204 138.79 76.1217L138.794 76.1158Z" fill="#5059C9"/>
<path d="M125.313 79.793V103.085C125.314 107.401 123.891 111.598 121.263 115.023C118.635 118.448 114.95 120.909 110.78 122.026C106.61 123.142 102.188 122.851 98.2005 121.198C94.213 119.544 90.8827 116.62 88.7267 112.88C88.2512 112.097 87.8433 111.274 87.5071 110.422C86.5693 108.083 86.0898 105.586 86.0948 103.067V79.7969C86.0942 78.8244 86.4793 77.8914 87.1654 77.2023C87.8516 76.5132 88.783 76.1242 89.7554 76.1206H121.653C122.625 76.1273 123.554 76.5175 124.24 77.2064C124.926 77.8953 125.311 78.8271 125.313 79.7989V79.793Z" fill="#7B83EB"/>
<path opacity="0.2" d="M102.428 66.3015H95.3472C96.2771 68.2557 97.7415 69.9066 99.5708 71.063C101.4 72.2194 103.52 72.8341 105.684 72.8359V69.5589C105.681 68.6958 105.337 67.8687 104.727 67.2584C104.117 66.6481 103.29 66.3041 102.426 66.3015H102.428Z" fill="black"/>
<path opacity="0.1" d="M108.143 76.1158V107.177C108.142 107.913 107.889 108.627 107.427 109.199C106.964 109.772 106.319 110.169 105.6 110.324C105.368 110.395 105.128 110.43 104.886 110.429H87.5071C86.5693 108.09 86.0898 105.593 86.0948 103.074V79.7922C86.0942 78.8197 86.4793 77.8866 87.1654 77.1975C87.8516 76.5084 88.783 76.1194 89.7554 76.1158H108.143V76.1158Z" fill="black"/>
<path opacity="0.2" d="M105.689 76.1158V109.64C105.691 109.882 105.656 110.122 105.585 110.354C105.427 111.072 105.029 111.715 104.457 112.177C103.885 112.639 103.173 112.893 102.438 112.897H88.7374C88.2621 112.114 87.8541 111.292 87.5179 110.44C86.58 108.102 86.1005 105.605 86.1055 103.086V79.7922C86.105 78.8197 86.49 77.8866 87.1762 77.1975C87.8623 76.5084 88.7937 76.1194 89.7662 76.1158H105.699H105.689Z" fill="black"/>
<path opacity="0.2" d="M105.688 76.1158V104.736C105.687 105.6 105.343 106.428 104.733 107.039C104.122 107.65 103.295 107.995 102.431 107.997H86.6949C86.2923 106.396 86.0874 104.751 86.085 103.099V79.7922C86.0844 78.8197 86.4695 77.8866 87.1556 77.1975C87.8418 76.5084 88.7732 76.1194 89.7456 76.1158H105.688Z" fill="black"/>
<path opacity="0.2" d="M89.7648 76.1158C88.7923 76.1153 87.8592 76.5003 87.1701 77.1865C86.481 77.8726 86.092 78.804 86.0884 79.7765V103.084C86.0907 104.735 86.2955 106.379 86.6982 107.98H99.9795C100.843 107.979 101.671 107.635 102.282 107.024C102.892 106.414 103.236 105.586 103.237 104.722V76.1158H89.7648Z" fill="black"/>
<path d="M67.2717 66.3015H99.9714C100.402 66.301 100.828 66.3854 101.226 66.5499C101.624 66.7144 101.985 66.9558 102.29 67.2602C102.594 67.5646 102.836 67.9261 103 68.3239C103.165 68.7217 103.249 69.148 103.249 69.5785V102.284C103.249 102.715 103.165 103.141 103 103.539C102.836 103.937 102.594 104.298 102.29 104.603C101.985 104.907 101.624 105.148 101.226 105.313C100.828 105.477 100.402 105.562 99.9714 105.561H67.2717C66.841 105.562 66.4144 105.478 66.0164 105.314C65.6183 105.149 65.2567 104.908 64.9521 104.603C64.6474 104.299 64.4058 103.937 64.2412 103.539C64.0766 103.141 63.9922 102.715 63.9927 102.284V69.5785C63.9984 68.7108 64.3456 67.8803 64.9594 67.2669C65.5731 66.6535 66.404 66.3067 67.2717 66.3015V66.3015Z" fill="#4B53BC"/>
<path d="M93.3831 78.5036H86.0501V98.164H81.2308V78.5036H73.8623V73.6844H93.3812L93.3831 78.5036Z" fill="white"/>
</svg>
