<svg width="400" height="400" viewBox="0 0 400 400" fill="none" xmlns="http://www.w3.org/2000/svg">
<path d="M61.4041 179.995C61.4041 192.689 50.7372 202.991 37.5683 202.991C24.3994 202.991 13.7326 192.689 13.7326 179.995C13.7326 167.301 24.3994 157 37.5683 157C50.7372 157 61.4041 167.301 61.4041 179.995ZM56.334 242.203L83.9227 192.158L82.3426 190.629L37.6341 211.365L15.5763 201.13L3 213.292L18.9345 242.269H56.334V242.203ZM114.343 229.641C107.166 229.641 101.569 224.258 101.569 217.213C101.569 210.169 107.166 204.785 114.343 204.785C121.52 204.785 127.117 210.169 127.117 217.213C127.117 224.192 121.52 229.641 114.343 229.641ZM128.368 192.091V195.082C124.285 192.689 119.413 191.294 114.343 191.294C99.6594 191.294 87.5442 202.991 87.5442 217.147C87.5442 231.303 99.7254 243 114.343 243C119.413 243 124.219 241.804 128.368 239.278V242.203H141.273V192.091H128.368ZM151.545 242.269H165.701V172.087H151.545V242.269ZM238.921 229.641C231.743 229.641 226.147 224.258 226.147 217.213C226.147 210.169 231.743 204.785 238.921 204.785C246.096 204.785 251.695 210.169 251.695 217.213C251.695 224.192 246.096 229.641 238.921 229.641ZM252.945 192.091V195.082C248.863 192.689 243.99 191.294 238.921 191.294C224.237 191.294 212.122 202.991 212.122 217.147C212.122 231.303 224.303 243 238.921 243C243.99 243 248.798 241.804 252.945 239.278V242.203H265.852V192.091H252.945ZM302.657 192.091L294.56 218.941C294.427 219.008 294.427 219.008 294.427 219.141L294.229 219.34C294.098 219.34 294.033 219.274 294.033 219.141V218.941L285.801 192.091H270.722L288.831 242.203H299.759L317.868 192.091H302.657ZM322.673 242.269H336.83V192.025H322.673V242.269ZM371.069 229.641C363.894 229.641 358.296 224.258 358.296 217.213C358.296 210.169 363.894 204.785 371.069 204.785C378.247 204.785 383.843 210.169 383.843 217.213C383.843 224.192 378.182 229.641 371.069 229.641ZM385.096 192.091V195.082C381.014 192.689 376.141 191.294 371.069 191.294C356.388 191.294 344.272 202.991 344.272 217.147C344.272 231.303 356.453 243 371.069 243C376.141 243 380.946 241.804 385.096 239.278V242.203H398V192.091H385.096ZM329.916 169.628C324.782 169.628 320.765 173.748 320.765 178.334C320.765 183.318 324.717 187.173 329.916 187.173C334.659 187.173 338.939 183.318 338.939 178.334C338.871 173.682 334.659 169.628 329.916 169.628ZM207.052 231.236C205.735 231.436 203.694 231.502 202.179 231.502C198.689 231.502 195.99 230.506 195.99 224.192V204.32H207.908V192.158H195.99V177.736H181.833V192.158H172.088V204.32H181.833V227.05C181.833 241.405 190.986 242.801 197.636 242.801C201.718 242.801 205.01 242.468 207.052 242.07V231.236Z" fill="#0F80DE"/>
</svg>
