<svg width="400" height="400" viewBox="0 0 400 400" fill="none" xmlns="http://www.w3.org/2000/svg">
<mask id="mask0_817_568" style="mask-type:luminance" maskUnits="userSpaceOnUse" x="2" y="96" width="396" height="208">
<path d="M397.473 96H2.5V303.577H397.473V96Z" fill="white"/>
</mask>
<g mask="url(#mask0_817_568)">
<path d="M9.78748 96.4927C5.39215 96.6778 2.53589 98.7141 2.53589 103.068V297.203C2.53589 300.587 4.95308 303.648 8.68048 303.648H354.329C357.432 303.648 359.91 303.366 361.37 299.257C361.37 299.257 396.401 189.333 397.009 187.343C398.31 183.191 397.466 181.083 393.933 178.828C281.364 106.49 112.978 95.9985 36.6079 95.9985C25.6453 95.9985 16.5906 96.2189 9.82017 96.4922" fill="url(#paint0_linear_817_568)"/>
<mask id="mask1_817_568" style="mask-type:luminance" maskUnits="userSpaceOnUse" x="-2128" y="-3853" width="2742" height="4498">
<path d="M-2127.39 644.215H613.538V-3852.96H-2127.39V644.215Z" fill="white"/>
</mask>
<g mask="url(#mask1_817_568)">
<path d="M222.354 249.501C217.519 243.85 215.603 236.561 216.798 228.434C219.646 209.051 238.458 196.799 263.626 196.799C268.927 196.799 274.386 197.134 279.291 197.759L284.266 183.136C278.201 182.201 270.852 181.805 263.643 181.805C241.324 181.805 221.914 189.508 209.334 203.092C208.939 203.515 208.535 203.507 208.288 203.507C207.901 203.507 207.638 203.435 207.743 203.092L214.047 183.268H195.621L175.455 246.706C169.039 227.984 155.835 203.365 139.686 183.268H119.898L105.104 229.448C112.541 234.992 114.896 238.994 116.839 244.688C116.953 245.023 117.191 245.093 117.551 245.093C117.912 245.093 118.088 245.005 118.184 244.688C118.324 244.247 131.089 204.555 131.089 204.555C144.108 223.233 157.03 247.808 163.957 273.758H185.178L195.674 240.88C195.788 240.545 196.017 240.474 196.368 240.474C196.738 240.474 196.975 240.572 197.019 240.88C200.21 261.523 220.683 275.398 249.701 275.398C268.46 275.398 285.418 270.462 289.637 268.196L300.635 233.467H342.865L347.164 220.016H304.924L312.212 197.213H362.539L366.925 183.268H296.23L272.232 258.483C267.142 259.769 260.848 260.404 254.272 260.404C240.111 260.404 228.77 257.028 222.354 249.501ZM103.152 197.151L107.354 183.903C101.315 182.792 96.9985 182.219 89.7902 182.052C66.6181 181.514 45.6699 187.922 40.2813 201.497C33.8992 217.592 52.0081 226.645 67.6994 234.102C80.1558 240.025 90.0011 245.657 86.5376 253.035C83.8479 258.755 75.0308 261.471 62.214 261.179C51.1114 260.915 37.2661 257.724 26.3568 252.215L19.8694 266.283C27.8952 270.021 44.4393 275.098 58.5571 275.424C85.0697 276.032 102.238 269.342 109.112 254.868C117.244 237.733 97.0688 228.363 80.8678 220.519C68.1828 214.375 59.5328 211.166 61.6162 204.987C64.0776 197.671 76.8329 194.895 88.3924 195.159C94.238 195.3 98.3963 196.049 103.152 197.151Z" fill="white"/>
</g>
</g>
<defs>
<linearGradient id="paint0_linear_817_568" x1="2.54757" y1="83.8704" x2="397.007" y2="83.8704" gradientUnits="userSpaceOnUse">
<stop stop-color="#7C2270"/>
<stop offset="0.2472" stop-color="#AA147E"/>
<stop offset="0.8146" stop-color="#E41D25"/>
<stop offset="1" stop-color="#E41D25"/>
</linearGradient>
</defs>
</svg>
