<svg width="19" height="19" viewBox="0 0 19 19" fill="none" xmlns="http://www.w3.org/2000/svg">
<path d="M8.46875 6.5C5.71875 6.5 3.46875 4.28125 3.46875 1.5H5.46875C8.21875 1.5 10.4688 3.75 10.4688 6.5V9.53125C10.4688 10.0625 9.96875 10.5 9.46875 10.5C8.9375 10.5 8.46875 10.0625 8.46875 9.5V6.5Z" fill="#3C51E2"/>
<path opacity="0.4" d="M18.25 12.0312C18.6562 12.5938 18.5312 13.375 17.9375 13.7812L13.6875 16.875C13.1562 17.2812 12.4688 17.5 11.7812 17.5H0.96875C0.71875 17.5 0.5 17.2812 0.5 17V14C0.5 13.7188 0.6875 13.5 0.96875 13.5L2.6875 13.5312L4.125 12.3438C4.78125 11.8125 5.65625 11.5312 6.46875 11.5312H11.4688C12.0938 11.5312 12.5625 12.0625 12.4688 12.6875C12.375 13.1875 11.9062 13.5312 11.4375 13.5312H8.96875C8.75 13.5312 8.5 13.75 8.5 14.0312C8.5 14.2812 8.71875 14.5312 8.96875 14.5312H12.75L16.5 11.75C17.0625 11.3438 17.8438 11.4688 18.25 12.0312ZM10.4688 6.5C10.4688 5.40625 10.0938 4.375 9.5 3.53125C10.375 2.3125 11.8125 1.5 13.4688 1.5H15.4688C15.4688 4.28125 13.2188 6.5 10.4688 6.5Z" fill="#3C51E2"/>
</svg>
