<svg width="19" height="19" viewBox="0 0 19 19" fill="none" xmlns="http://www.w3.org/2000/svg">
<path d="M16.9688 9H10V2.03125C10 1.75 10.1875 1.5 10.5 1.5C14.3438 1.5 17.5 4.65625 17.5 8.5C17.5 8.78125 17.25 9 16.9688 9ZM17.9375 10.5C18.2188 10.5 18.4688 10.75 18.4062 11.0312C18.1875 12.7812 17.3438 14.3438 16.0938 15.5C15.9062 15.6562 15.625 15.6562 15.4375 15.4688L10.5 10.5H17.9375Z" fill="#3C51E2"/>
<path opacity="0.4" d="M1.5 10C1.5 6.21875 4.3125 3.09375 7.9375 2.59375C8.25 2.53125 8.5 2.78125 8.5 3.0625V10.5L13.375 15.4062C13.5938 15.625 13.5625 15.9688 13.3438 16.125C12.0938 17 10.5938 17.5 9 17.5C4.84375 17.5 1.5 14.1562 1.5 10Z" fill="#3C51E2"/>
</svg>
