<svg width="19" height="19" viewBox="0 0 19 19" fill="none" xmlns="http://www.w3.org/2000/svg">
<path d="M12.4999 2.375C12.4999 1.74511 12.2497 1.14102 11.8043 0.695621C11.3589 0.250223 10.7548 0 10.1249 0C9.49505 0 8.89096 0.250223 8.44556 0.695621C8.00016 1.14102 7.74994 1.74511 7.74994 2.375C7.12005 2.375 6.51596 2.62522 6.07056 3.07062C5.62516 3.51602 5.37494 4.12011 5.37494 4.75V5.34375C5.37515 5.50116 5.43777 5.65206 5.54907 5.76337C5.66038 5.87467 5.81128 5.93729 5.96869 5.9375H14.2812C14.4385 5.93704 14.5893 5.87434 14.7005 5.76309C14.8118 5.65184 14.8745 5.50108 14.8749 5.34375V4.75C14.8747 4.12019 14.6244 3.51626 14.179 3.07091C13.7337 2.62557 13.1297 2.37527 12.4999 2.375ZM10.1249 3.26562C9.94879 3.26562 9.7766 3.21339 9.63013 3.11553C9.48367 3.01766 9.36952 2.87857 9.30211 2.71583C9.2347 2.55309 9.21706 2.37401 9.25143 2.20125C9.28579 2.02848 9.37062 1.86979 9.49517 1.74523C9.61973 1.62068 9.77842 1.53585 9.95119 1.50149C10.124 1.46712 10.303 1.48476 10.4658 1.55217C10.6285 1.61958 10.7676 1.73373 10.8655 1.8802C10.9633 2.02666 11.0156 2.19885 11.0156 2.375C11.0157 2.49199 10.9927 2.60786 10.948 2.71598C10.9033 2.82409 10.8377 2.92232 10.755 3.00505C10.6723 3.08778 10.574 3.15338 10.4659 3.19809C10.3578 3.2428 10.2419 3.26575 10.1249 3.26562ZM6.56244 13.9531C6.38629 13.9531 6.2141 14.0054 6.06763 14.1032C5.92117 14.2011 5.80702 14.3402 5.73961 14.5029C5.6722 14.6657 5.65456 14.8447 5.68893 15.0175C5.72329 15.1903 5.80812 15.349 5.93267 15.4735C6.05723 15.5981 6.21592 15.6829 6.38869 15.7173C6.56145 15.7516 6.74053 15.734 6.90327 15.6666C7.06601 15.5992 7.2051 15.485 7.30297 15.3386C7.40083 15.1921 7.45306 15.0199 7.45306 14.8437C7.453 14.6076 7.35915 14.3811 7.19214 14.214C7.02513 14.047 6.79863 13.9532 6.56244 13.9531ZM9.11185 8.48691L7.15619 10.4426L6.3884 9.67441C6.27687 9.56412 6.12622 9.50245 5.96937 9.50288C5.81251 9.50331 5.66221 9.56582 5.5513 9.67673C5.44038 9.78764 5.37788 9.93795 5.37745 10.0948C5.37701 10.2517 5.43868 10.4023 5.54898 10.5138L6.73648 11.7013C6.84804 11.8123 6.99887 11.8747 7.15619 11.875C7.23417 11.8751 7.3114 11.8598 7.38343 11.83C7.45547 11.8001 7.52088 11.7563 7.5759 11.701L9.9509 9.32603C10.0622 9.21477 10.1247 9.06386 10.1247 8.9065C10.1247 8.74914 10.0622 8.59822 9.95093 8.48695C9.83967 8.37568 9.68876 8.31316 9.5314 8.31315C9.37404 8.31315 9.22313 8.37565 9.11185 8.48691Z" fill="#3C51E2"/>
<path opacity="0.4" d="M15.4688 2.375H12.5C13.1299 2.375 13.734 2.62522 14.1794 3.07062C14.6248 3.51602 14.875 4.12011 14.875 4.75V5.34375C14.8745 5.50108 14.8118 5.65184 14.7006 5.76309C14.5893 5.87434 14.4386 5.93704 14.2812 5.9375H5.96875C5.81134 5.93729 5.66044 5.87467 5.54913 5.76337C5.43783 5.65206 5.37521 5.50116 5.375 5.34375V4.75C5.375 4.12011 5.62522 3.51602 6.07062 3.07062C6.51602 2.62522 7.12011 2.375 7.75 2.375H4.78125C4.30883 2.375 3.85577 2.56267 3.52172 2.89672C3.18767 3.23077 3 3.68383 3 4.15625V17.2187C3.00006 17.6911 3.18774 18.1442 3.52178 18.4782C3.85582 18.8122 4.30885 18.9999 4.78125 19H15.4688C15.9412 19 16.3942 18.8123 16.7283 18.4783C17.0623 18.1442 17.25 17.6912 17.25 17.2187V4.15625C17.2499 3.68385 17.0623 3.23082 16.7282 2.89678C16.3942 2.56275 15.9411 2.37506 15.4688 2.375ZM6.5625 15.7344C6.38635 15.7344 6.21416 15.6821 6.0677 15.5843C5.92123 15.4864 5.80708 15.3473 5.73967 15.1846C5.67226 15.0218 5.65462 14.8428 5.68899 14.67C5.72335 14.4972 5.80818 14.3385 5.93273 14.214C6.05729 14.0894 6.21598 14.0046 6.38875 13.9702C6.56151 13.9359 6.74059 13.9535 6.90333 14.0209C7.06607 14.0883 7.20516 14.2025 7.30303 14.3489C7.40089 14.4954 7.45312 14.6676 7.45312 14.8437C7.45307 15.0799 7.35921 15.3064 7.1922 15.4734C7.02519 15.6405 6.79869 15.7343 6.5625 15.7344ZM7.15625 11.875C7.07828 11.8751 7.00105 11.8598 6.92902 11.8299C6.85699 11.8001 6.79157 11.7563 6.73654 11.701L5.54904 10.5135C5.49343 10.4585 5.44923 10.3931 5.41899 10.3209C5.38876 10.2488 5.37308 10.1714 5.37287 10.0931C5.37265 10.0149 5.3879 9.93743 5.41773 9.86511C5.44757 9.7928 5.4914 9.7271 5.54672 9.67179C5.60203 9.61648 5.66773 9.57264 5.74004 9.54281C5.81235 9.51297 5.88985 9.49772 5.96807 9.49794C6.04629 9.49816 6.1237 9.51383 6.19585 9.54407C6.26799 9.5743 6.33345 9.6185 6.38846 9.67412L7.15625 10.4426L9.11154 8.48729C9.16655 8.43167 9.23201 8.38747 9.30415 8.35724C9.3763 8.327 9.45371 8.31133 9.53193 8.31111C9.61015 8.31089 9.68765 8.32614 9.75996 8.35598C9.83227 8.38581 9.89797 8.42964 9.95328 8.48496C10.0086 8.54027 10.0524 8.60597 10.0823 8.67828C10.1121 8.75059 10.1273 8.82809 10.1271 8.90631C10.1269 8.98454 10.1112 9.06195 10.081 9.13409C10.0508 9.20624 10.0066 9.27169 9.95096 9.3267L7.57596 11.7017C7.46427 11.8124 7.31349 11.8746 7.15625 11.875ZM14.2812 15.4375H9.53125C9.37378 15.4375 9.22275 15.3749 9.11141 15.2636C9.00006 15.1522 8.9375 15.0012 8.9375 14.8437C8.9375 14.6863 9.00006 14.5352 9.11141 14.4239C9.22275 14.3125 9.37378 14.25 9.53125 14.25H14.2812C14.4387 14.25 14.5897 14.3125 14.7011 14.4239C14.8124 14.5352 14.875 14.6863 14.875 14.8437C14.875 15.0012 14.8124 15.1522 14.7011 15.2636C14.5897 15.3749 14.4387 15.4375 14.2812 15.4375ZM14.2812 11.875H10.7188C10.5613 11.875 10.4103 11.8124 10.2989 11.7011C10.1876 11.5897 10.125 11.4387 10.125 11.2812C10.125 11.1238 10.1876 10.9727 10.2989 10.8614C10.4103 10.75 10.5613 10.6875 10.7188 10.6875H14.2812C14.4387 10.6875 14.5897 10.75 14.7011 10.8614C14.8124 10.9727 14.875 11.1238 14.875 11.2812C14.875 11.4387 14.8124 11.5897 14.7011 11.7011C14.5897 11.8124 14.4387 11.875 14.2812 11.875Z" fill="#3C51E2"/>
</svg>
