<svg width="19" height="19" viewBox="0 0 19 19" fill="none" xmlns="http://www.w3.org/2000/svg">
<path fill-rule="evenodd" clip-rule="evenodd" d="M4.84727 2.56542C5.68216 2.18972 7.35194 1.62615 8.60428 1.87662C8.64574 1.88491 8.68746 1.89368 8.72944 1.90291V5.25786C7.22664 5.15768 5.26464 5.67531 4.4715 5.94665V9.20275C6.07449 8.60163 7.97804 8.49309 8.72944 8.51397V12.0831C9.16776 12.0831 10.5595 12.4659 10.921 12.6467C11.2825 12.8274 12.1734 13.2102 13.05 13.2102V9.64107C14.2522 9.69116 16.473 8.66007 17.3706 8.13827V4.88219C17.1201 5.04917 16.3937 5.48331 15.4921 5.88406C14.5904 6.28481 13.4883 6.52299 13.05 6.54386V3.00369C12.8811 2.99018 12.7138 2.97085 12.5478 2.94662C12.8999 2.99082 13.2373 2.99567 13.551 2.94112C14.3082 2.80942 14.8924 2.59118 15.3671 2.4138C15.7953 2.25383 16.1344 2.1271 16.4314 2.1271C17.0575 2.1271 17.3706 2.62804 17.3706 3.19159V11.457C17.3915 11.7492 17.1452 12.4213 15.9931 12.772C14.5529 13.2103 12.9248 13.586 11.1716 12.772C9.41829 11.9579 7.22671 11.7075 4.53418 12.772V17.1551C4.53418 17.4473 4.32129 18.0318 3.4697 18.0318C2.61811 18.0318 2.40521 17.4473 2.40521 17.1551V1.87662C2.40521 1.58441 2.61811 1 3.4697 1C4.32129 1 4.45069 1.58441 4.40895 1.87662V2.81589L4.84727 2.56542ZM11.8035 2.80615C12.0483 2.862 12.2964 2.90992 12.5478 2.94662C12.3057 2.91623 12.0566 2.86723 11.8035 2.80615ZM11.8035 2.80615C11.1291 2.65225 10.4801 2.43809 9.85654 2.23231C9.65012 2.16419 9.44649 2.097 9.24563 2.03321C9.59114 2.12992 9.94802 2.24554 10.3082 2.36223C10.8074 2.52396 11.313 2.68776 11.8035 2.80615ZM9.24563 2.03321C9.07029 1.98413 8.89787 1.93992 8.72944 1.90291V1.87659C8.89941 1.92515 9.07148 1.9779 9.24563 2.03321ZM8.72944 5.32051C9.08427 5.34138 10.1383 5.58921 10.8584 6.0093C11.6098 6.44761 12.6117 6.57285 13.05 6.57285V9.51584C12.716 9.55758 11.7977 9.52836 10.7958 9.07752C9.79392 8.62668 9.00078 8.43048 8.72944 8.38873V5.50836V5.32051Z" fill="white"/>
<path opacity="0.4" fill-rule="evenodd" clip-rule="evenodd" d="M4.4715 5.94665C5.26464 5.67531 7.22664 5.15768 8.72944 5.25786V1.87659C10.0444 2.25229 11.4846 2.87846 13.05 3.00369V6.54386C13.4883 6.52299 14.5904 6.28481 15.4921 5.88406C16.3937 5.48331 17.1201 5.04917 17.3706 4.88219V8.13827C16.473 8.66007 14.2522 9.69116 13.05 9.64107V13.2102C12.1734 13.2102 11.2825 12.8274 10.921 12.6467C10.5595 12.4659 9.16776 12.0831 8.72944 12.0831V8.51397C7.97804 8.49309 6.07449 8.60163 4.4715 9.20275V5.94665ZM10.8584 6.0093C10.1383 5.58921 9.08427 5.34138 8.72944 5.32051V5.50836V8.38873C9.00078 8.43048 9.79392 8.62668 10.7958 9.07752C11.7977 9.52836 12.716 9.55758 13.05 9.51584V6.57285C12.6117 6.57285 11.6098 6.44761 10.8584 6.0093Z" fill="white"/>
</svg>
