<svg width="19" height="19" viewBox="0 0 19 19" fill="none" xmlns="http://www.w3.org/2000/svg">
<g clip-path="url(#clip0_5_280)">
<mask id="mask0_5_280" style="mask-type:luminance" maskUnits="userSpaceOnUse" x="0" y="0" width="19" height="19">
<path d="M19 0H0V19H19V0Z" fill="white"/>
</mask>
<g mask="url(#mask0_5_280)">
<path d="M16.2011 10.4375C14.2139 10.4375 12.5755 11.9082 12.3741 13.792L1.30222 16.7335C0.789648 16.8682 0.260841 16.5753 0.121229 16.0743C-0.0184432 15.5762 0.28399 15.0606 0.796562 14.9229L10.429 12.3653V3.87501C10.429 2.83936 11.2918 2 12.353 2H19.0871V11.7061C18.3807 10.9297 17.3495 10.4375 16.2011 10.4375ZM5.09586 8.35159C5.165 8.60061 5.01168 8.85843 4.75615 8.92581L3.8272 9.16898C3.57167 9.20999 3.30712 9.08694 3.23797 8.83792L2.61567 6.57326L4.47356 6.08693L5.09586 8.35159Z" fill="#3C51E2"/>
<path opacity="0.4" d="M0.541666 8.08492C0.404279 7.58394 0.708816 7.07124 1.22199 6.93647L5.86851 5.72358C6.38259 5.58881 6.90869 5.88764 7.04698 6.38569L8.29158 10.915C8.42987 11.416 8.12323 11.9287 7.61216 12.0634L2.96444 13.2763C2.45156 13.4111 1.92426 13.1123 1.78657 12.6142L0.541666 8.08492ZM3.23801 8.83785C3.30715 9.08687 3.57171 9.20992 3.82724 9.16891L4.75619 8.92574C5.01172 8.85836 5.16504 8.60054 5.0959 8.35152L4.47359 6.08686L2.61571 6.57319L3.23801 8.83785ZM13.3151 14.1875C13.3151 12.6084 14.5807 11.375 16.2011 11.375C17.7945 11.375 19.0872 12.6084 19.0872 14.1875C19.0872 15.7402 17.7945 17 16.2011 17C14.5807 17 13.3151 15.7402 13.3151 14.1875Z" fill="#3C51E2"/>
</g>
</g>
<defs>
<clipPath id="clip0_5_280">
<rect width="19" height="19" fill="white"/>
</clipPath>
</defs>
</svg>
