<svg width="20" height="19" viewBox="0 0 20 19" fill="none" xmlns="http://www.w3.org/2000/svg">
<path opacity="0.4" d="M3.67659 16.0925C3.6342 16.0077 3.16785 15.3717 3.84617 13.3792C3.97336 12.9128 4.18533 12.4465 4.39731 11.9801C4.90605 12.5737 5.45719 13.1672 6.00833 13.7607C6.60186 14.3119 7.19539 14.863 7.78892 15.3717C7.32258 15.5837 6.85623 15.7957 6.38988 15.9229C4.39731 16.6012 3.76138 16.1348 3.67659 16.0501V16.0925ZM5.92354 9.4788C6.51707 8.71569 7.19539 7.95258 7.95851 7.18946C8.72162 6.38395 9.48473 5.74803 10.2902 5.15449C11.0534 5.74803 11.8165 6.38395 12.5796 7.18946C13.3851 7.95258 14.021 8.71569 14.6145 9.4788C14.021 10.2843 13.3851 11.0474 12.5796 11.8105C11.8165 12.5737 11.0534 13.252 10.2902 13.8455C9.48473 13.252 8.72162 12.5737 7.95851 11.8105C7.19539 11.0474 6.51707 10.2843 5.92354 9.4788ZM7.78892 3.62827C7.19539 4.13701 6.60186 4.68815 6.00833 5.23928C5.45719 5.83282 4.90605 6.42635 4.39731 7.01988C4.18533 6.55353 3.97336 6.08719 3.84617 5.62084C3.16785 3.62827 3.6342 2.99234 3.71899 2.90755C3.76138 2.86515 4.39731 2.39881 6.43228 3.07713C6.85623 3.20432 7.32258 3.41629 7.78892 3.62827ZM10.2902 1.89006C6.77144 -0.1873 3.42222 -0.653647 1.76881 0.999766C0.115396 2.65318 0.581743 6.0024 2.65911 9.4788C0.581743 12.9976 0.115396 16.3468 1.76881 18.0002C3.42222 19.6536 6.77144 19.1873 10.2902 17.1099C13.7666 19.1873 17.1159 19.6536 18.7693 18.0002C20.4227 16.3468 19.9563 12.9976 17.879 9.4788C19.9563 6.0024 20.4227 2.65318 18.7693 0.999766C17.1159 -0.653647 13.7666 -0.1873 10.2902 1.89006ZM12.7492 3.62827C13.2155 3.41629 13.6819 3.20432 14.1482 3.07713C16.1408 2.39881 16.7767 2.86515 16.8615 2.90755C16.9039 2.99234 17.3702 3.62827 16.6919 5.62084C16.5647 6.08719 16.3528 6.55353 16.1408 7.01988C15.632 6.42635 15.0809 5.83282 14.5298 5.23928C13.9362 4.68815 13.3427 4.13701 12.7492 3.62827ZM16.1408 11.9801C16.3528 12.4465 16.5647 12.9128 16.6919 13.3792C17.3702 15.3717 16.9039 16.0077 16.8615 16.0925C16.7767 16.1348 16.1408 16.6012 14.1482 15.9229C13.6819 15.7957 13.2155 15.5837 12.7492 15.3717C13.3427 14.863 13.9362 14.3119 14.5298 13.7607C15.0809 13.1672 15.632 12.5737 16.1408 11.9801Z" fill="white"/>
<path d="M10.2902 8.12215C11.0109 8.12215 11.6469 8.75808 11.6469 9.4788C11.6469 10.2419 11.0109 10.8354 10.2902 10.8354C9.5271 10.8354 8.93356 10.2419 8.93356 9.4788C8.93356 8.75808 9.5271 8.12215 10.2902 8.12215Z" fill="white"/>
</svg>
