<svg preserveAspectRatio="none" width="100%" height="100%" overflow="visible" style="display: block;" viewBox="0 0 119.024 119.024" fill="none" xmlns="http://www.w3.org/2000/svg">
<g id="altavia">
<path id="Vector" d="M18.2709 53.5592C18.2709 57.3364 15.0969 60.4019 11.1783 60.4019C7.25979 60.4019 4.08579 57.3364 4.08579 53.5592C4.08579 49.782 7.25979 46.7168 11.1783 46.7168C15.0969 46.7168 18.2709 49.782 18.2709 53.5592ZM16.7622 72.0698L24.9715 57.1784L24.5013 56.7234L11.1979 62.8936L4.6344 59.8481L0.892199 63.467L5.63366 72.0894H16.7622V72.0698ZM34.0234 68.3318C31.8878 68.3318 30.2223 66.7301 30.2223 64.6338C30.2223 62.5377 31.8878 60.9357 34.0234 60.9357C36.1589 60.9357 37.8244 62.5377 37.8244 64.6338C37.8244 66.7104 36.1589 68.3318 34.0234 68.3318ZM38.1966 57.1585V58.0485C36.9817 57.3364 35.532 56.9213 34.0234 56.9213C29.6541 56.9213 26.0491 60.4019 26.0491 64.6141C26.0491 68.8264 29.6738 72.3069 34.0234 72.3069C35.532 72.3069 36.962 71.951 38.1966 71.1994V72.0698H42.0366V57.1585H38.1966ZM45.0932 72.0894H49.3054V51.2061H45.0932V72.0894ZM71.0927 68.3318C68.9568 68.3318 67.2917 66.7301 67.2917 64.6338C67.2917 62.5377 68.9568 60.9357 71.0927 60.9357C73.2277 60.9357 74.8937 62.5377 74.8937 64.6338C74.8937 66.7104 73.2277 68.3318 71.0927 68.3318ZM75.2657 57.1585V58.0485C74.051 57.3364 72.601 56.9213 71.0927 56.9213C66.7233 56.9213 63.1184 60.4019 63.1184 64.6141C63.1184 68.8264 66.743 72.3069 71.0927 72.3069C72.601 72.3069 74.0317 71.951 75.2657 71.1994V72.0698H79.1063V57.1585H75.2657ZM90.058 57.1585L87.6486 65.1479C87.609 65.1679 87.609 65.1679 87.609 65.2075L87.5501 65.2667C87.5111 65.2667 87.4918 65.247 87.4918 65.2075V65.1479L85.0423 57.1585H80.5554L85.9439 72.0698H89.1956L94.5841 57.1585H90.058ZM96.0139 72.0894H100.226V57.1388H96.0139V72.0894ZM110.415 68.3318C108.28 68.3318 106.614 66.7301 106.614 64.6338C106.614 62.5377 108.28 60.9357 110.415 60.9357C112.55 60.9357 114.216 62.5377 114.216 64.6338C114.216 66.7104 112.531 68.3318 110.415 68.3318ZM114.588 57.1585V58.0485C113.374 57.3364 111.924 56.9213 110.415 56.9213C106.046 56.9213 102.441 60.4019 102.441 64.6141C102.441 68.8264 106.065 72.3069 110.415 72.3069C111.924 72.3069 113.354 71.951 114.588 71.1994V72.0698H118.428V57.1585H114.588ZM98.1691 50.4744C96.6414 50.4744 95.4462 51.7003 95.4462 53.0649C95.4462 54.548 96.6221 55.6951 98.1691 55.6951C99.5804 55.6951 100.854 54.548 100.854 53.0649C100.834 51.6807 99.5804 50.4744 98.1691 50.4744ZM61.6098 68.8064C61.2179 68.8659 60.6106 68.8856 60.1598 68.8856C59.1213 68.8856 58.3182 68.5892 58.3182 66.7104V60.7973H61.8645V57.1784H58.3182V52.887H54.1056V57.1784H51.2059V60.7973H54.1056V67.5608C54.1056 71.8323 56.8292 72.2477 58.808 72.2477C60.0226 72.2477 61.0022 72.1486 61.6098 72.0302V68.8064Z" fill="var(--fill-0, #50596F)"/>
</g>
</svg>
