<svg width="348" height="344" viewBox="0 0 348 344" fill="none" xmlns="http://www.w3.org/2000/svg">
<g clip-path="url(#clip0_225_4856)">
<path d="M-10.9182 252.597C-8.18141 204.207 32.8513 167.438 80.4265 170.128C128.002 172.819 164.627 213.98 161.89 262.37C159.153 310.76 118.121 347.529 70.5456 344.838C22.9704 342.148 -13.6549 300.987 -10.9182 252.597Z" stroke="#F3F3FC" stroke-width="33.5585"/>
<path d="M124.333 85.4931C126.525 46.7295 159.365 17.4162 197.274 19.5602C235.183 21.7042 264.509 54.5333 262.316 93.2969C260.124 132.061 227.284 161.374 189.375 159.23C151.466 157.086 122.141 124.257 124.333 85.4931Z" fill="#F3F3FC" stroke="#F3F3FC" stroke-width="45.0442"/>
<path d="M165.454 411.48C171.503 304.521 262.248 223.022 367.731 228.987C473.213 234.953 554.191 326.164 548.141 433.124C542.092 540.083 451.347 621.582 345.864 615.617C240.382 609.651 159.404 518.44 165.454 411.48Z" fill="#F3F3FC" stroke="#F3F3FC" stroke-width="45.0442"/>
<path d="M182.39 227.813C183.3 227.813 183.845 228.359 183.845 229.268C183.845 229.995 183.118 230.723 182.39 230.723H173.661C172.752 230.723 172.207 229.995 172.207 229.268C172.207 228.359 172.752 227.813 173.661 227.813H182.39ZM195.484 217.629C195.484 218.539 194.938 219.084 193.847 219.084H167.842C166.933 219.084 166.387 218.357 166.387 217.629C166.387 216.72 166.933 216.175 167.842 216.175H194.029C194.756 216.175 195.484 216.72 195.484 217.629ZM211.487 227.813C212.396 227.813 212.942 228.359 212.942 229.268C212.942 229.995 212.214 230.723 211.487 230.723H191.119C190.392 230.723 189.846 229.995 189.846 229.268C189.846 228.359 190.21 227.813 191.119 227.813H211.487ZM228.945 227.813C229.854 227.813 230.4 228.359 230.4 229.268C230.4 229.995 229.672 230.723 228.945 230.723H220.216C219.307 230.723 218.761 229.995 218.761 229.268C218.761 228.359 219.307 227.813 220.216 227.813H228.945ZM234.764 216.175C235.673 216.175 236.219 216.72 236.219 217.629C236.219 218.357 235.491 219.084 234.764 219.084H202.758C201.849 219.084 201.303 218.357 201.303 217.629C201.303 216.72 201.849 216.175 202.758 216.175H234.764ZM201.485 178.349C227.126 178.349 247.857 195.443 247.857 216.175C247.857 236.906 227.308 254 201.485 254C194.575 254 188.028 252.545 182.027 250.363C177.48 254 168.57 259.819 156.385 259.819C155.84 259.819 155.294 259.456 155.112 258.91C154.931 258.364 154.931 257.637 155.476 257.273C155.476 257.273 163.114 249.09 165.296 239.815C158.931 233.451 154.931 225.085 154.931 216.175C154.931 195.261 175.662 178.349 201.485 178.349ZM201.303 251.09C225.49 251.09 244.948 235.269 244.948 216.175C244.948 196.898 225.308 181.259 201.303 181.259C177.117 181.259 157.658 196.898 157.658 216.175C157.658 224.176 161.114 231.814 167.115 237.815L168.206 238.906L167.842 240.543C166.205 247.271 162.023 253.273 159.295 256.728C168.933 255.819 176.207 251.09 179.844 248.181L181.117 247.09L182.754 247.635C188.573 249.817 194.756 251.09 201.303 251.09Z" fill="#6B7BE9"/>
<path d="M206.72 74.9051C206.72 92.7267 189.626 106.911 168.895 106.911C161.803 106.911 155.438 105.456 149.8 102.547C145.254 104.911 139.435 106.911 132.343 106.911C131.797 106.911 131.251 106.729 131.07 106.184C130.888 105.638 130.888 105.093 131.433 104.729C131.433 104.547 135.616 100.183 138.526 94.1815C133.797 88.726 131.07 82.1792 131.07 74.9051C131.07 57.2654 147.982 42.899 168.895 42.899C189.626 42.899 206.72 57.2654 206.72 74.9051ZM168.895 104.002C187.99 104.002 203.811 91.09 203.811 74.9051C203.811 58.9021 187.99 45.8086 168.895 45.8086C149.619 45.8086 133.979 58.9021 133.979 74.9051C133.979 81.27 136.343 87.0893 140.708 92.1812L141.981 93.636L141.071 95.4545C139.435 98.9097 137.253 101.819 135.798 103.82C140.162 103.456 144.345 102.183 148.527 100.001L149.8 99.2734L151.073 100.001C156.529 102.729 162.53 104.002 168.895 104.002ZM240 123.642C242.909 129.461 246.91 133.644 246.91 133.825C247.274 134.189 247.455 134.735 247.274 135.28C247.092 135.826 246.546 136.008 246.001 136.008C239.454 136.008 233.817 134.189 229.27 132.189C224.36 134.553 218.541 136.008 212.54 136.008C197.81 136.008 185.444 127.824 180.17 116.186C179.806 115.458 180.352 114.367 181.079 114.185H181.261C181.807 114.004 182.534 114.367 182.898 115.095C187.626 125.642 199.083 133.098 212.54 133.098C217.813 133.098 223.269 131.825 227.997 129.461L229.27 128.915L230.543 129.461C234.544 131.461 238.545 132.553 242.545 133.098C241.091 131.098 239.09 128.188 237.454 125.097L236.544 123.278L237.817 121.823C242.182 116.731 244.546 110.548 244.546 104.002C244.546 89.2715 232.362 77.0874 216.54 75.2688C215.813 75.087 215.449 74.5414 215.267 73.9959C215.267 73.0866 215.995 72.3592 216.904 72.3592C234.18 74.3596 247.455 87.8167 247.455 104.002C247.455 111.458 244.546 118.186 240 123.642Z" fill="#6B7BE9"/>
<path d="M258.418 109.017C258.418 96.2873 268.784 85.7398 281.696 85.7398C294.425 85.7398 304.973 96.2873 304.973 109.017V111.927C304.973 124.838 294.425 135.204 281.696 135.204C268.784 135.204 258.418 124.838 258.418 111.927V109.017ZM301.7 106.107H297.699C293.516 106.107 289.879 104.289 287.333 101.197L286.424 102.107C282.969 106.471 277.513 109.017 271.876 109.017H261.328V111.927C261.328 123.202 270.421 132.294 281.696 132.294C292.789 132.294 302.063 123.202 302.063 111.927V109.017C302.063 108.108 301.881 107.198 301.7 106.107ZM301.154 103.198C299.881 99.1969 297.335 95.5599 294.062 93.0139L289.152 98.8332L289.515 99.1969C291.334 101.743 294.425 103.198 297.517 103.198H301.154ZM284.242 100.288L291.516 91.3773C288.606 89.7406 285.151 88.6495 281.696 88.6495C271.33 88.6495 262.783 96.2873 261.51 106.107H271.876C276.604 106.107 281.15 104.107 284.242 100.288ZM240.961 173.757C240.961 157.39 254.236 143.933 270.603 143.933H292.607C308.974 143.933 322.431 157.39 322.431 173.757C322.431 176.666 320.067 178.849 317.157 178.849H246.052C243.143 178.849 240.961 176.666 240.961 173.757ZM246.052 175.939H317.157C318.43 175.939 319.521 175.03 319.521 173.757C319.521 159.027 307.337 146.842 292.607 146.842H270.603C255.873 146.842 243.87 159.027 243.87 173.757C243.87 175.03 244.78 175.939 246.052 175.939Z" fill="#6B7BE9"/>
<path d="M115.323 88.7526C110.367 85.2122 106.827 80.2558 104.702 74.8273C100.69 86.6284 89.361 95.1252 76.1438 95.1252C62.6905 95.1252 51.3615 86.6284 47.3491 74.8273C45.2249 80.2558 41.6846 85.2122 36.7281 88.7526L35.784 89.4606C34.84 90.1687 34.6039 91.1128 34.6039 92.0569C34.6039 93.709 35.784 95.1252 37.6722 95.1252H51.5975C52.5416 95.1252 53.4857 96.0693 53.4857 97.0133C53.4857 98.1935 52.5416 98.9015 51.5975 98.9015H37.6722C33.8959 98.9015 30.8276 95.8332 30.8276 92.0569C30.8276 89.9327 31.7717 87.8085 33.4238 86.6284L34.6039 85.6843C41.6846 80.4918 45.933 71.995 45.933 63.0262V61.138C45.933 44.6165 59.3862 30.9272 76.1438 30.9272C92.6653 30.9272 106.355 44.6165 106.355 61.138V63.0262C106.355 71.995 110.367 80.4918 117.684 85.6843L118.628 86.6284C120.28 87.8085 121.46 89.9327 121.46 92.0569C121.46 95.8332 118.156 98.9015 114.379 98.9015H100.69C99.51 98.9015 98.8019 98.1935 98.8019 97.0133C98.8019 96.0693 99.51 95.1252 100.69 95.1252H114.379C116.268 95.1252 117.684 93.709 117.684 92.0569C117.684 91.1128 117.212 90.1687 116.268 89.4606L115.323 88.7526ZM102.578 64.9144V61.138C102.578 59.9579 102.342 58.7778 102.106 57.3617H96.9137C91.4852 57.3617 86.7648 55.0014 83.4605 50.9891L82.2804 52.1692C77.796 57.8337 70.7153 61.138 63.3986 61.138H49.7093V64.9144C49.7093 79.5477 61.5104 91.3488 76.1438 91.3488C90.5411 91.3488 102.578 79.5477 102.578 64.9144ZM85.8207 47.9208L86.2927 48.3928C88.653 51.6971 92.6653 53.5853 96.9137 53.5853H101.398C99.746 48.3928 96.4417 43.6724 92.1933 40.3681L85.8207 47.9208ZM49.9454 57.3617H63.3986C69.5352 57.3617 75.4357 54.7654 79.4481 49.809L88.889 38.2439C85.1126 36.1197 80.6282 34.7035 76.1438 34.7035C62.6905 34.7035 51.5975 44.6165 49.9454 57.3617ZM23.2749 145.162C23.2749 123.92 40.5045 106.454 61.7465 106.454H90.3051C111.547 106.454 129.013 123.92 129.013 145.162C129.013 148.938 125.944 151.77 122.168 151.77H29.8835C26.1071 151.77 23.2749 148.938 23.2749 145.162ZM29.8835 147.994H122.168C123.82 147.994 125.236 146.814 125.236 145.162C125.236 126.044 109.423 110.231 90.3051 110.231H61.7465C42.6287 110.231 27.0512 126.044 27.0512 145.162C27.0512 146.814 28.2313 147.994 29.8835 147.994Z" fill="#6B7BE9"/>
<path d="M115.323 88.7526L115.584 88.4053L115.576 88.3995L115.323 88.7526ZM104.702 74.8273L105.107 74.6692L104.674 73.5633L104.292 74.6876L104.702 74.8273ZM47.3491 74.8273L47.76 74.6876L47.3777 73.5633L46.945 74.6692L47.3491 74.8273ZM36.7281 88.7526L36.4758 88.3994L36.4678 88.4054L36.7281 88.7526ZM33.4238 86.6284L33.676 86.9815L33.6857 86.9746L33.6949 86.9672L33.4238 86.6284ZM34.6039 85.6843L34.3473 85.3344L34.34 85.3397L34.3328 85.3454L34.6039 85.6843ZM117.684 85.6843L117.991 85.3774L117.965 85.3516L117.935 85.3304L117.684 85.6843ZM118.628 86.6284L118.321 86.9352L118.346 86.9606L118.376 86.9815L118.628 86.6284ZM102.106 57.3617L102.534 57.2903L102.474 56.9277H102.106V57.3617ZM83.4605 50.9891L83.7955 50.7132L83.4916 50.3442L83.1536 50.6822L83.4605 50.9891ZM82.2804 52.1692L81.9735 51.8623L81.9557 51.8801L81.9401 51.8998L82.2804 52.1692ZM49.7093 61.138V60.7041H49.2754V61.138H49.7093ZM85.8207 47.9208L85.489 47.6409L85.2319 47.9457L85.5139 48.2276L85.8207 47.9208ZM86.2927 48.3928L86.6459 48.1406L86.625 48.1114L86.5996 48.086L86.2927 48.3928ZM101.398 53.5853V54.0192H101.992L101.812 53.4537L101.398 53.5853ZM92.1933 40.3681L92.4597 40.0255L92.1305 39.7695L91.8616 40.0882L92.1933 40.3681ZM49.9454 57.3617L49.515 57.3059L49.4515 57.7956H49.9454V57.3617ZM79.4481 49.809L79.1119 49.5345L79.1108 49.5359L79.4481 49.809ZM88.889 38.2439L89.2251 38.5183L89.5514 38.1186L89.1017 37.8657L88.889 38.2439ZM115.576 88.3995C110.696 84.9142 107.204 80.0299 105.107 74.6692L104.298 74.9854C106.449 80.4817 110.038 85.5103 115.071 89.1057L115.576 88.3995ZM104.292 74.6876C100.338 86.3153 89.1725 94.6912 76.1438 94.6912V95.5591C89.5495 95.5591 101.042 86.9415 105.113 74.967L104.292 74.6876ZM76.1438 94.6912C62.877 94.6912 51.7127 86.3134 47.76 74.6876L46.9383 74.967C51.0102 86.9434 62.504 95.5591 76.1438 95.5591V94.6912ZM46.945 74.6692C44.8473 80.0299 41.3552 84.9142 36.4759 88.3995L36.9804 89.1057C42.014 85.5103 45.6025 80.4817 47.7532 74.9854L46.945 74.6692ZM36.4678 88.4054L35.5237 89.1135L36.0444 89.8078L36.9885 89.0997L36.4678 88.4054ZM35.5237 89.1135C34.4309 89.9331 34.17 91.0344 34.17 92.0569H35.0379C35.0379 91.1912 35.249 90.4044 36.0444 89.8078L35.5237 89.1135ZM34.17 92.0569C34.17 93.9263 35.5226 95.5591 37.6722 95.5591V94.6912C36.0455 94.6912 35.0379 93.4918 35.0379 92.0569H34.17ZM37.6722 95.5591H51.5975V94.6912H37.6722V95.5591ZM51.5975 95.5591C51.9284 95.5591 52.2957 95.7289 52.5888 96.0221C52.8819 96.3152 53.0517 96.6824 53.0517 97.0133H53.9196C53.9196 96.4002 53.6174 95.8233 53.2025 95.4084C52.7875 94.9934 52.2107 94.6912 51.5975 94.6912V95.5591ZM53.0517 97.0133C53.0517 97.919 52.3383 98.4676 51.5975 98.4676V99.3355C52.7449 99.3355 53.9196 98.4679 53.9196 97.0133H53.0517ZM51.5975 98.4676H37.6722V99.3355H51.5975V98.4676ZM37.6722 98.4676C34.1355 98.4676 31.2615 95.5936 31.2615 92.0569H30.3936C30.3936 96.0729 33.6562 99.3355 37.6722 99.3355V98.4676ZM31.2615 92.0569C31.2615 90.0479 32.1568 88.0667 33.676 86.9815L33.1716 86.2753C31.3865 87.5503 30.3936 89.8174 30.3936 92.0569H31.2615ZM33.6949 86.9672L34.875 86.0231L34.3328 85.3454L33.1527 86.2895L33.6949 86.9672ZM34.8606 86.0342C42.0555 80.7579 46.3669 72.1297 46.3669 63.0262H45.499C45.499 71.8603 41.3137 80.2257 34.3473 85.3344L34.8606 86.0342ZM46.3669 63.0262V61.138H45.499V63.0262H46.3669ZM46.3669 61.138C46.3669 44.8539 59.6281 31.3611 76.1438 31.3611V30.4932C59.1444 30.4932 45.499 44.379 45.499 61.138H46.3669ZM76.1438 31.3611C92.4257 31.3611 105.921 44.8561 105.921 61.138H106.789C106.789 44.3768 92.905 30.4932 76.1438 30.4932V31.3611ZM105.921 61.138V63.0262H106.789V61.138H105.921ZM105.921 63.0262C105.921 72.1229 109.991 80.7572 117.433 86.0382L117.935 85.3304C110.743 80.2264 106.789 71.8672 106.789 63.0262H105.921ZM117.377 85.9911L118.321 86.9352L118.935 86.3215L117.991 85.3774L117.377 85.9911ZM118.376 86.9815C119.921 88.0852 121.026 90.0812 121.026 92.0569H121.894C121.894 89.7842 120.639 87.5318 118.88 86.2753L118.376 86.9815ZM121.026 92.0569C121.026 95.5748 117.935 98.4676 114.379 98.4676V99.3355C118.376 99.3355 121.894 96.0917 121.894 92.0569H121.026ZM114.379 98.4676H100.69V99.3355H114.379V98.4676ZM100.69 98.4676C100.187 98.4676 99.8355 98.3184 99.6103 98.0931C99.3851 97.8679 99.2359 97.5164 99.2359 97.0133H98.368C98.368 97.6904 98.5728 98.283 98.9966 98.7068C99.4204 99.1306 100.013 99.3355 100.69 99.3355V98.4676ZM99.2359 97.0133C99.2359 96.2726 99.7844 95.5591 100.69 95.5591V94.6912C99.2355 94.6912 98.368 95.8659 98.368 97.0133H99.2359ZM100.69 95.5591H114.379V94.6912H100.69V95.5591ZM114.379 95.5591C116.486 95.5591 118.118 93.9694 118.118 92.0569H117.25C117.25 93.4487 116.049 94.6912 114.379 94.6912V95.5591ZM118.118 92.0569C118.118 90.9596 117.567 89.893 116.528 89.1135L116.007 89.8078C116.856 90.4444 117.25 91.266 117.25 92.0569H118.118ZM116.528 89.1135L115.584 88.4054L115.063 89.0997L116.007 89.8078L116.528 89.1135ZM103.012 64.9144V61.138H102.144V64.9144H103.012ZM103.012 61.138C103.012 59.9119 102.767 58.6839 102.534 57.2903L101.678 57.433C101.918 58.8717 102.144 60.0039 102.144 61.138H103.012ZM102.106 56.9277H96.9137V57.7956H102.106V56.9277ZM96.9137 56.9277C91.6193 56.9277 87.0202 54.629 83.7955 50.7132L83.1255 51.2649C86.5094 55.3739 91.3511 57.7956 96.9137 57.7956V56.9277ZM83.1536 50.6822L81.9735 51.8623L82.5872 52.476L83.7673 51.2959L83.1536 50.6822ZM81.9401 51.8998C77.5416 57.4559 70.5885 60.7041 63.3986 60.7041V61.572C70.8421 61.572 78.0503 58.2115 82.6206 52.4385L81.9401 51.8998ZM63.3986 60.7041H49.7093V61.572H63.3986V60.7041ZM49.2754 61.138V64.9144H50.1433V61.138H49.2754ZM49.2754 64.9144C49.2754 79.7874 61.2708 91.7828 76.1438 91.7828V90.9149C61.7501 90.9149 50.1433 79.3081 50.1433 64.9144H49.2754ZM76.1438 91.7828C90.7783 91.7828 103.012 79.7899 103.012 64.9144H102.144C102.144 79.3055 90.304 90.9149 76.1438 90.9149V91.7828ZM85.5139 48.2276L85.9859 48.6997L86.5996 48.086L86.1275 47.6139L85.5139 48.2276ZM85.9396 48.645C88.3904 52.0761 92.5416 54.0192 96.9137 54.0192V53.1514C92.7891 53.1514 88.9155 51.3181 86.6459 48.1406L85.9396 48.645ZM96.9137 54.0192H101.398V53.1514H96.9137V54.0192ZM101.812 53.4537C100.133 48.1776 96.7773 43.3837 92.4597 40.0255L91.9269 40.7106C96.1061 43.9611 99.3591 48.608 100.985 53.7169L101.812 53.4537ZM91.8616 40.0882L85.489 47.6409L86.1524 48.2006L92.525 40.6479L91.8616 40.0882ZM49.9454 57.7956H63.3986V56.9277H49.9454V57.7956ZM63.3986 57.7956C69.6583 57.7956 75.6858 55.1462 79.7854 50.082L79.1108 49.5359C75.1856 54.3847 69.4121 56.9277 63.3986 56.9277V57.7956ZM79.7843 50.0834L89.2251 38.5183L88.5528 37.9695L79.1119 49.5345L79.7843 50.0834ZM89.1017 37.8657C85.2735 35.7123 80.7164 34.2696 76.1438 34.2696V35.1375C80.54 35.1375 84.9518 36.5271 88.6762 38.6221L89.1017 37.8657ZM76.1438 34.2696C62.4748 34.2696 51.1955 44.3421 49.515 57.3059L50.3757 57.4174C51.9995 44.8908 62.9063 35.1375 76.1438 35.1375V34.2696ZM23.7088 145.162C23.7088 124.156 40.7476 106.888 61.7465 106.888V106.02C40.2614 106.02 22.8409 123.684 22.8409 145.162H23.7088ZM61.7465 106.888H90.3051V106.02H61.7465V106.888ZM90.3051 106.888C111.307 106.888 128.579 124.16 128.579 145.162H129.447C129.447 123.68 111.787 106.02 90.3051 106.02V106.888ZM128.579 145.162C128.579 148.679 125.725 151.336 122.168 151.336V152.204C126.164 152.204 129.447 149.198 129.447 145.162H128.579ZM122.168 151.336H29.8835V152.204H122.168V151.336ZM29.8835 151.336C26.3468 151.336 23.7088 148.699 23.7088 145.162H22.8409C22.8409 149.178 25.8675 152.204 29.8835 152.204V151.336ZM29.8835 148.428H122.168V147.56H29.8835V148.428ZM122.168 148.428C124.013 148.428 125.67 147.098 125.67 145.162H124.802C124.802 146.53 123.627 147.56 122.168 147.56V148.428ZM125.67 145.162C125.67 125.804 109.663 109.797 90.3051 109.797V110.665C109.183 110.665 124.802 126.284 124.802 145.162H125.67ZM90.3051 109.797H61.7465V110.665H90.3051V109.797ZM61.7465 109.797C42.3852 109.797 26.6173 125.808 26.6173 145.162H27.4852C27.4852 126.28 42.8722 110.665 61.7465 110.665V109.797ZM26.6173 145.162C26.6173 147.054 27.9917 148.428 29.8835 148.428V147.56C28.471 147.56 27.4852 146.574 27.4852 145.162H26.6173Z" fill="white"/>
<path d="M96.2367 268.346L106.897 277.483L96.2367 285.288V268.346Z" stroke="#6B7BE9" stroke-width="2.89298" stroke-linejoin="round"/>
<path d="M128.789 268.346L118.129 277.483L128.789 285.288V268.346Z" stroke="#6B7BE9" stroke-width="2.89298" stroke-linejoin="round"/>
<path d="M98.2785 264.417C75.9613 264.417 57.8595 282.703 57.8595 304.943C57.8595 308.897 60.8351 311.862 64.8026 311.862H161.759C165.726 311.862 168.95 308.897 168.95 304.943C168.95 282.703 150.6 264.417 128.283 264.417H98.2785Z" stroke="#6B7BE9" stroke-width="2.89298"/>
<path d="M89.5746 205.16C106.631 207.901 121.428 201.099 126.695 197.355C134.5 200.211 137.736 207.064 137.736 212.965C137.736 218.866 137.926 229.336 137.736 236.76C137.583 242.699 130.312 248.499 126.695 250.656C124.791 253.131 119.423 257.966 113.179 257.509C106.935 257.052 102.202 252.75 100.616 250.656C97.6966 249.578 91.402 245.288 89.5746 236.76C87.7471 228.232 88.8131 212.14 89.5746 205.16Z" stroke="#6B7BE9" stroke-width="2.89298" stroke-linejoin="round"/>
<path d="M88.4321 214.488H83.6731C81.6426 214.424 77.5815 220.008 80.6274 224.958C83.6733 229.907 86.8458 232.445 88.4321 230.859" stroke="#6B7BE9" stroke-width="2.89298" stroke-linejoin="round"/>
<path d="M137.926 214.488H142.685C144.715 214.424 148.776 220.008 145.731 224.958C142.685 229.907 139.512 232.445 137.926 230.859" stroke="#6B7BE9" stroke-width="2.89298" stroke-linejoin="round"/>
<path d="M145.159 215.249C146.682 207.699 146.606 190.959 134.118 184.411C130.121 182.315 127.265 182.508 122.887 182.508L127.837 178.129C122.76 174.259 109.029 168.84 94.7138 178.129C76.82 189.741 79.485 207.254 81.7694 215.249" stroke="#6B7BE9" stroke-width="2.89298" stroke-linejoin="round"/>
<circle cx="112.418" cy="277.672" r="3.8836" stroke="#6B7BE9" stroke-width="2.89298" stroke-linejoin="round"/>
</g>
<defs>
<clipPath id="clip0_225_4856">
<rect width="348" height="343.926" fill="white"/>
</clipPath>
</defs>
</svg>
